0
SECTION
2
HEADER
9
$INSUNITS
70
1
9
$ACADVER
1
AC1014
9
$HANDSEED
5
FFFF
0
ENDSEC
0
SECTION
2
TABLES
0
TABLE
2
VPORT
5
8
100
AcDbSymbolTable
0
ENDTAB
0
TABLE
2
LTYPE
5
5
100
AcDbSymbolTable
0
LTYPE
5
14
100
AcDbSymbolTableRecord
100
AcDbLinetypeTableRecord
2
BYBLOCK
70
0
0
LTYPE
5
15
100
AcDbSymbolTableRecord
100
AcDbLinetypeTableRecord
2
BYLAYER
70
0
0
ENDTAB
0
TABLE
2
LAYER
5
2
100
AcDbSymbolTable
70
2
0
LAYER
5
50
100
AcDbSymbolTableRecord
100
AcDbLayerTableRecord
2
0
70
0
6
CONTINUOUS
0
ENDTAB
0
TABLE
2
STYLE
5
3
100
AcDbSymbolTable
70
1
0
STYLE
5
11
100
AcDbSymbolTableRecord
100
AcDbTextStyleTableRecord
2
STANDARD
70
0
0
ENDTAB
0
TABLE
2
VIEW
5
6
100
AcDbSymbolTable
70
0
0
ENDTAB
0
TABLE
2
UCS
5
7
100
AcDbSymbolTable
70
0
0
ENDTAB
0
TABLE
2
APPID
5
9
100
AcDbSymbolTable
70
2
0
APPID
5
12
100
AcDbSymbolTableRecord
100
AcDbRegAppTableRecord
2
ACAD
70
0
0
ENDTAB
0
TABLE
2
DIMSTYLE
5
A
100
AcDbSymbolTable
70
1
0
ENDTAB
0
TABLE
2
BLOCK_RECORD
5
1
100
AcDbSymbolTable
70
1
0
BLOCK_RECORD
5
1F
100
AcDbSymbolTableRecord
100
AcDbBlockTableRecord
2
*MODEL_SPACE
0
BLOCK_RECORD
5
1B
100
AcDbSymbolTableRecord
100
AcDbBlockTableRecord
2
*PAPER_SPACE
0
ENDTAB
0
ENDSEC
0
SECTION
2
BLOCKS
0
BLOCK
5
20
100
AcDbEntity
100
AcDbBlockBegin
2
*MODEL_SPACE
0
ENDBLK
5
21
100
AcDbEntity
100
AcDbBlockEnd
0
BLOCK
5
1C
100
AcDbEntity
100
AcDbBlockBegin
2
*PAPER_SPACE
0
ENDBLK
5
1D
100
AcDbEntity
100
AcDbBlockEnd
0
ENDSEC
0
SECTION
2
ENTITIES
0
CIRCLE
5
100
100
AcDbEntity
8
0
100
AcDbCircle
10
4.9999999999999991
20
-6.1245459372251121
30
0
40
1.9999999999999991
210
0
220
0
230
1
0
LINE
5
101
100
AcDbEntity
8
0
100
AcDbLine
10
0
20
-0.24954593722511173
30
0
11
0
21
-11.999545937225113
31
0
0
LINE
5
102
100
AcDbEntity
8
0
100
AcDbLine
10
0
20
-11.999545937225113
30
0
11
0.24999999999999997
21
-11.999545937225113
31
0
0
LINE
5
103
100
AcDbEntity
8
0
100
AcDbLine
10
0.24999999999999997
20
-11.999545937225113
30
0
11
0.25
21
-11.749545937225111
31
0
0
LINE
5
104
100
AcDbEntity
8
0
100
AcDbLine
10
0.25
20
-11.749545937225111
30
0
11
0.49999999999999994
21
-11.749545937225111
31
0
0
LINE
5
105
100
AcDbEntity
8
0
100
AcDbLine
10
0.49999999999999994
20
-11.749545937225111
30
0
11
0.49999999999999994
21
-11.999545937225113
31
0
0
LINE
5
106
100
AcDbEntity
8
0
100
AcDbLine
10
0.49999999999999994
20
-11.999545937225113
30
0
11
0.75
21
-11.999545937225113
31
0
0
LINE
5
107
100
AcDbEntity
8
0
100
AcDbLine
10
0.75
20
-11.999545937225113
30
0
11
0.75
21
-11.749545937225111
31
0
0
LINE
5
108
100
AcDbEntity
8
0
100
AcDbLine
10
0.75
20
-11.749545937225111
30
0
11
0.99999999999999989
21
-11.749545937225111
31
0
0
LINE
5
109
100
AcDbEntity
8
0
100
AcDbLine
10
0.99999999999999989
20
-11.749545937225111
30
0
11
0.99999999999999989
21
-11.999545937225113
31
0
0
LINE
5
110
100
AcDbEntity
8
0
100
AcDbLine
10
0.99999999999999989
20
-11.999545937225113
30
0
11
1.2499999999999998
21
-11.999545937225113
31
0
0
LINE
5
111
100
AcDbEntity
8
0
100
AcDbLine
10
1.2499999999999998
20
-11.999545937225113
30
0
11
1.25
21
-11.749545937225111
31
0
0
LINE
5
112
100
AcDbEntity
8
0
100
AcDbLine
10
1.25
20
-11.749545937225111
30
0
11
1.5
21
-11.749545937225111
31
0
0
LINE
5
113
100
AcDbEntity
8
0
100
AcDbLine
10
1.5
20
-11.749545937225111
30
0
11
1.5
21
-11.999545937225113
31
0
0
LINE
5
114
100
AcDbEntity
8
0
100
AcDbLine
10
1.5
20
-11.999545937225113
30
0
11
1.75
21
-11.999545937225113
31
0
0
LINE
5
115
100
AcDbEntity
8
0
100
AcDbLine
10
1.75
20
-11.999545937225113
30
0
11
1.75
21
-11.749545937225111
31
0
0
LINE
5
116
100
AcDbEntity
8
0
100
AcDbLine
10
1.75
20
-11.749545937225111
30
0
11
1.9999999999999998
21
-11.749545937225111
31
0
0
LINE
5
117
100
AcDbEntity
8
0
100
AcDbLine
10
1.9999999999999998
20
-11.749545937225111
30
0
11
1.9999999999999998
21
-11.999545937225113
31
0
0
LINE
5
118
100
AcDbEntity
8
0
100
AcDbLine
10
1.9999999999999998
20
-11.999545937225113
30
0
11
2.2499999999999996
21
-11.999545937225113
31
0
0
LINE
5
119
100
AcDbEntity
8
0
100
AcDbLine
10
2.2499999999999996
20
-11.999545937225113
30
0
11
2.2499999999999996
21
-11.749545937225111
31
0
0
LINE
5
120
100
AcDbEntity
8
0
100
AcDbLine
10
2.2499999999999996
20
-11.749545937225111
30
0
11
2.4999999999999996
21
-11.749545937225111
31
0
0
LINE
5
121
100
AcDbEntity
8
0
100
AcDbLine
10
2.4999999999999996
20
-11.749545937225111
30
0
11
2.4999999999999996
21
-11.999545937225113
31
0
0
LINE
5
122
100
AcDbEntity
8
0
100
AcDbLine
10
2.4999999999999996
20
-11.999545937225113
30
0
11
2.7499999999999996
21
-11.999545937225113
31
0
0
LINE
5
123
100
AcDbEntity
8
0
100
AcDbLine
10
2.7499999999999996
20
-11.999545937225113
30
0
11
2.7499999999999996
21
-11.749545937225111
31
0
0
LINE
5
124
100
AcDbEntity
8
0
100
AcDbLine
10
2.7499999999999996
20
-11.749545937225111
30
0
11
2.9999999999999996
21
-11.749545937225111
31
0
0
LINE
5
125
100
AcDbEntity
8
0
100
AcDbLine
10
2.9999999999999996
20
-11.749545937225111
30
0
11
2.9999999999999996
21
-11.999545937225113
31
0
0
LINE
5
126
100
AcDbEntity
8
0
100
AcDbLine
10
2.9999999999999996
20
-11.999545937225113
30
0
11
3.25
21
-11.999545937225113
31
0
0
LINE
5
127
100
AcDbEntity
8
0
100
AcDbLine
10
3.25
20
-11.999545937225113
30
0
11
3.25
21
-11.749545937225111
31
0
0
LINE
5
128
100
AcDbEntity
8
0
100
AcDbLine
10
3.25
20
-11.749545937225111
30
0
11
3.5
21
-11.749545937225111
31
0
0
LINE
5
129
100
AcDbEntity
8
0
100
AcDbLine
10
3.5
20
-11.749545937225111
30
0
11
3.5
21
-11.999545937225113
31
0
0
LINE
5
130
100
AcDbEntity
8
0
100
AcDbLine
10
3.5
20
-11.999545937225113
30
0
11
3.75
21
-11.999545937225113
31
0
0
LINE
5
131
100
AcDbEntity
8
0
100
AcDbLine
10
3.75
20
-11.999545937225113
30
0
11
3.75
21
-11.749545937225111
31
0
0
LINE
5
132
100
AcDbEntity
8
0
100
AcDbLine
10
3.75
20
-11.749545937225111
30
0
11
3.9999999999999996
21
-11.749545937225111
31
0
0
LINE
5
133
100
AcDbEntity
8
0
100
AcDbLine
10
3.9999999999999996
20
-11.749545937225111
30
0
11
3.9999999999999996
21
-11.999545937225113
31
0
0
LINE
5
134
100
AcDbEntity
8
0
100
AcDbLine
10
3.9999999999999996
20
-11.999545937225113
30
0
11
4.25
21
-11.999545937225113
31
0
0
LINE
5
135
100
AcDbEntity
8
0
100
AcDbLine
10
4.25
20
-11.999545937225113
30
0
11
4.25
21
-11.749545937225111
31
0
0
LINE
5
136
100
AcDbEntity
8
0
100
AcDbLine
10
4.25
20
-11.749545937225111
30
0
11
4.4999999999999991
21
-11.749545937225111
31
0
0
LINE
5
137
100
AcDbEntity
8
0
100
AcDbLine
10
4.4999999999999991
20
-11.749545937225111
30
0
11
4.4999999999999991
21
-11.999545937225113
31
0
0
LINE
5
138
100
AcDbEntity
8
0
100
AcDbLine
10
4.4999999999999991
20
-11.999545937225113
30
0
11
4.7499999999999991
21
-11.999545937225113
31
0
0
LINE
5
139
100
AcDbEntity
8
0
100
AcDbLine
10
4.7499999999999991
20
-11.999545937225113
30
0
11
4.7499999999999991
21
-11.749545937225111
31
0
0
LINE
5
140
100
AcDbEntity
8
0
100
AcDbLine
10
4.7499999999999991
20
-11.749545937225111
30
0
11
4.9999999999999991
21
-11.749545937225111
31
0
0
LINE
5
141
100
AcDbEntity
8
0
100
AcDbLine
10
4.9999999999999991
20
-11.749545937225111
30
0
11
4.9999999999999991
21
-11.999545937225113
31
0
0
LINE
5
142
100
AcDbEntity
8
0
100
AcDbLine
10
4.9999999999999991
20
-11.999545937225113
30
0
11
5.2499999999999991
21
-11.999545937225113
31
0
0
LINE
5
143
100
AcDbEntity
8
0
100
AcDbLine
10
5.2499999999999991
20
-11.999545937225113
30
0
11
5.2499999999999991
21
-11.749545937225111
31
0
0
LINE
5
144
100
AcDbEntity
8
0
100
AcDbLine
10
5.2499999999999991
20
-11.749545937225111
30
0
11
5.4999999999999991
21
-11.749545937225111
31
0
0
LINE
5
145
100
AcDbEntity
8
0
100
AcDbLine
10
5.4999999999999991
20
-11.749545937225111
30
0
11
5.4999999999999991
21
-11.999545937225113
31
0
0
LINE
5
146
100
AcDbEntity
8
0
100
AcDbLine
10
5.4999999999999991
20
-11.999545937225113
30
0
11
5.75
21
-11.999545937225113
31
0
0
LINE
5
147
100
AcDbEntity
8
0
100
AcDbLine
10
5.75
20
-11.999545937225113
30
0
11
5.75
21
-11.749545937225111
31
0
0
LINE
5
148
100
AcDbEntity
8
0
100
AcDbLine
10
5.75
20
-11.749545937225111
30
0
11
6
21
-11.749545937225111
31
0
0
LINE
5
149
100
AcDbEntity
8
0
100
AcDbLine
10
6
20
-11.749545937225111
30
0
11
6
21
-11.999545937225113
31
0
0
LINE
5
150
100
AcDbEntity
8
0
100
AcDbLine
10
6
20
-11.999545937225113
30
0
11
6.2499999999999991
21
-11.999545937225113
31
0
0
LINE
5
151
100
AcDbEntity
8
0
100
AcDbLine
10
6.2499999999999991
20
-11.999545937225113
30
0
11
6.2499999999999991
21
-11.749545937225111
31
0
0
LINE
5
152
100
AcDbEntity
8
0
100
AcDbLine
10
6.2499999999999991
20
-11.749545937225111
30
0
11
6.5
21
-11.749545937225111
31
0
0
LINE
5
153
100
AcDbEntity
8
0
100
AcDbLine
10
6.5
20
-11.749545937225111
30
0
11
6.5
21
-11.999545937225113
31
0
0
LINE
5
154
100
AcDbEntity
8
0
100
AcDbLine
10
6.5
20
-11.999545937225113
30
0
11
6.7500000000000009
21
-11.999545937225113
31
0
0
LINE
5
155
100
AcDbEntity
8
0
100
AcDbLine
10
6.7500000000000009
20
-11.999545937225113
30
0
11
6.7500000000000009
21
-11.749545937225111
31
0
0
LINE
5
156
100
AcDbEntity
8
0
100
AcDbLine
10
6.7500000000000009
20
-11.749545937225111
30
0
11
7
21
-11.749545937225111
31
0
0
LINE
5
157
100
AcDbEntity
8
0
100
AcDbLine
10
7
20
-11.749545937225111
30
0
11
7
21
-11.999545937225113
31
0
0
LINE
5
158
100
AcDbEntity
8
0
100
AcDbLine
10
7
20
-11.999545937225113
30
0
11
7.2500000000000009
21
-11.999545937225113
31
0
0
LINE
5
159
100
AcDbEntity
8
0
100
AcDbLine
10
7.2500000000000009
20
-11.999545937225113
30
0
11
7.2500000000000009
21
-11.749545937225111
31
0
0
LINE
5
160
100
AcDbEntity
8
0
100
AcDbLine
10
7.2500000000000009
20
-11.749545937225111
30
0
11
7.5
21
-11.749545937225111
31
0
0
LINE
5
161
100
AcDbEntity
8
0
100
AcDbLine
10
7.5
20
-11.749545937225111
30
0
11
7.5
21
-11.999545937225113
31
0
0
LINE
5
162
100
AcDbEntity
8
0
100
AcDbLine
10
7.5
20
-11.999545937225113
30
0
11
7.75
21
-11.999545937225113
31
0
0
LINE
5
163
100
AcDbEntity
8
0
100
AcDbLine
10
7.75
20
-11.999545937225113
30
0
11
7.75
21
-11.749545937225111
31
0
0
LINE
5
164
100
AcDbEntity
8
0
100
AcDbLine
10
7.75
20
-11.749545937225111
30
0
11
7.9999999999999991
21
-11.749545937225111
31
0
0
LINE
5
165
100
AcDbEntity
8
0
100
AcDbLine
10
7.9999999999999991
20
-11.749545937225111
30
0
11
7.9999999999999991
21
-11.999545937225113
31
0
0
LINE
5
166
100
AcDbEntity
8
0
100
AcDbLine
10
7.9999999999999991
20
-11.999545937225113
30
0
11
8.25
21
-11.999545937225113
31
0
0
LINE
5
167
100
AcDbEntity
8
0
100
AcDbLine
10
8.25
20
-11.999545937225113
30
0
11
8.25
21
-11.749545937225111
31
0
0
LINE
5
168
100
AcDbEntity
8
0
100
AcDbLine
10
8.25
20
-11.749545937225111
30
0
11
8.5
21
-11.749545937225111
31
0
0
LINE
5
169
100
AcDbEntity
8
0
100
AcDbLine
10
8.5
20
-11.749545937225111
30
0
11
8.5
21
-11.999545937225113
31
0
0
LINE
5
170
100
AcDbEntity
8
0
100
AcDbLine
10
8.5
20
-11.999545937225113
30
0
11
8.75
21
-11.999545937225113
31
0
0
LINE
5
171
100
AcDbEntity
8
0
100
AcDbLine
10
8.75
20
-11.999545937225113
30
0
11
8.75
21
-11.749545937225111
31
0
0
LINE
5
172
100
AcDbEntity
8
0
100
AcDbLine
10
8.75
20
-11.749545937225111
30
0
11
8.9999999999999982
21
-11.749545937225111
31
0
0
LINE
5
173
100
AcDbEntity
8
0
100
AcDbLine
10
8.9999999999999982
20
-11.749545937225111
30
0
11
8.9999999999999982
21
-11.999545937225113
31
0
0
LINE
5
174
100
AcDbEntity
8
0
100
AcDbLine
10
8.9999999999999982
20
-11.999545937225113
30
0
11
9.25
21
-11.999545937225113
31
0
0
LINE
5
175
100
AcDbEntity
8
0
100
AcDbLine
10
9.25
20
-11.999545937225113
30
0
11
9.25
21
-11.749545937225111
31
0
0
LINE
5
176
100
AcDbEntity
8
0
100
AcDbLine
10
9.25
20
-11.749545937225111
30
0
11
9.4999999999999982
21
-11.749545937225111
31
0
0
LINE
5
177
100
AcDbEntity
8
0
100
AcDbLine
10
9.4999999999999982
20
-11.749545937225111
30
0
11
9.4999999999999982
21
-11.999545937225113
31
0
0
LINE
5
178
100
AcDbEntity
8
0
100
AcDbLine
10
9.4999999999999982
20
-11.999545937225113
30
0
11
9.75
21
-11.999545937225113
31
0
0
LINE
5
179
100
AcDbEntity
8
0
100
AcDbLine
10
9.75
20
-11.999545937225113
30
0
11
9.75
21
-11.749545937225111
31
0
0
LINE
5
180
100
AcDbEntity
8
0
100
AcDbLine
10
9.75
20
-11.749545937225111
30
0
11
9.9999999999999982
21
-11.749545937225111
31
0
0
LINE
5
181
100
AcDbEntity
8
0
100
AcDbLine
10
9.9999999999999982
20
-11.749545937225111
30
0
11
9.9999999999999982
21
-11.999545937225113
31
0
0
LINE
5
182
100
AcDbEntity
8
0
100
AcDbLine
10
9.9999999999999982
20
-11.999545937225113
30
0
11
10.25
21
-11.999545937225113
31
0
0
LINE
5
183
100
AcDbEntity
8
0
100
AcDbLine
10
10.25
20
-11.999545937225113
30
0
11
10.25
21
-11.749545937225111
31
0
0
LINE
5
184
100
AcDbEntity
8
0
100
AcDbLine
10
10.25
20
-11.749545937225111
30
0
11
10.499999999999998
21
-11.749545937225111
31
0
0
LINE
5
185
100
AcDbEntity
8
0
100
AcDbLine
10
10.499999999999998
20
-11.749545937225111
30
0
11
10.499999999999998
21
-11.999545937225113
31
0
0
LINE
5
186
100
AcDbEntity
8
0
100
AcDbLine
10
10.499999999999998
20
-11.999545937225113
30
0
11
10.75
21
-11.999545937225113
31
0
0
LINE
5
187
100
AcDbEntity
8
0
100
AcDbLine
10
10.75
20
-11.999545937225113
30
0
11
10.75
21
-11.749545937225111
31
0
0
LINE
5
188
100
AcDbEntity
8
0
100
AcDbLine
10
10.75
20
-11.749545937225111
30
0
11
11
21
-11.749545937225111
31
0
0
LINE
5
189
100
AcDbEntity
8
0
100
AcDbLine
10
11
20
-11.749545937225111
30
0
11
11
21
-11.999545937225113
31
0
0
LINE
5
190
100
AcDbEntity
8
0
100
AcDbLine
10
11
20
-11.999545937225113
30
0
11
11.25
21
-11.999545937225113
31
0
0
LINE
5
191
100
AcDbEntity
8
0
100
AcDbLine
10
11.25
20
-11.999545937225113
30
0
11
11.25
21
-11.749545937225111
31
0
0
LINE
5
192
100
AcDbEntity
8
0
100
AcDbLine
10
11.25
20
-11.749545937225111
30
0
11
11.5
21
-11.749545937225111
31
0
0
LINE
5
193
100
AcDbEntity
8
0
100
AcDbLine
10
11.5
20
-11.749545937225111
30
0
11
11.5
21
-11.999545937225113
31
0
0
LINE
5
194
100
AcDbEntity
8
0
100
AcDbLine
10
11.5
20
-11.999545937225113
30
0
11
11.75
21
-11.999545937225113
31
0
0
LINE
5
195
100
AcDbEntity
8
0
100
AcDbLine
10
11.75
20
-11.999545937225113
30
0
11
11.75
21
-11.749545937225111
31
0
0
LINE
5
196
100
AcDbEntity
8
0
100
AcDbLine
10
11.75
20
-11.749545937225111
30
0
11
12
21
-11.749545937225111
31
0
0
LINE
5
197
100
AcDbEntity
8
0
100
AcDbLine
10
12
20
-11.749545937225111
30
0
11
12
21
-11.999545937225113
31
0
0
LINE
5
198
100
AcDbEntity
8
0
100
AcDbLine
10
12
20
-11.999545937225113
30
0
11
12.25
21
-11.999545937225113
31
0
0
LINE
5
199
100
AcDbEntity
8
0
100
AcDbLine
10
12.25
20
-11.999545937225113
30
0
11
12.25
21
-11.749545937225111
31
0
0
LINE
5
200
100
AcDbEntity
8
0
100
AcDbLine
10
12.25
20
-11.749545937225111
30
0
11
12.499999999999998
21
-11.749545937225111
31
0
0
LINE
5
201
100
AcDbEntity
8
0
100
AcDbLine
10
12.499999999999998
20
-11.749545937225111
30
0
11
12.499999999999998
21
-11.999545937225113
31
0
0
LINE
5
202
100
AcDbEntity
8
0
100
AcDbLine
10
12.499999999999998
20
-11.999545937225113
30
0
11
12.749999999999998
21
-11.999545937225113
31
0
0
LINE
5
203
100
AcDbEntity
8
0
100
AcDbLine
10
12.749999999999998
20
-11.999545937225113
30
0
11
12.749999999999998
21
-11.749545937225111
31
0
0
LINE
5
204
100
AcDbEntity
8
0
100
AcDbLine
10
12.749999999999998
20
-11.749545937225111
30
0
11
13
21
-11.749545937225111
31
0
0
LINE
5
205
100
AcDbEntity
8
0
100
AcDbLine
10
13
20
-11.749545937225111
30
0
11
13
21
-11.999545937225113
31
0
0
LINE
5
206
100
AcDbEntity
8
0
100
AcDbLine
10
13
20
-11.999545937225113
30
0
11
13.25
21
-11.999545937225113
31
0
0
LINE
5
207
100
AcDbEntity
8
0
100
AcDbLine
10
13.25
20
-11.999545937225113
30
0
11
13.25
21
-11.749545937225111
31
0
0
LINE
5
208
100
AcDbEntity
8
0
100
AcDbLine
10
13.25
20
-11.749545937225111
30
0
11
13.500000000000002
21
-11.749545937225111
31
0
0
LINE
5
209
100
AcDbEntity
8
0
100
AcDbLine
10
13.500000000000002
20
-11.749545937225111
30
0
11
13.500000000000002
21
-11.999545937225113
31
0
0
LINE
5
210
100
AcDbEntity
8
0
100
AcDbLine
10
13.500000000000002
20
-11.999545937225113
30
0
11
13.749999999999998
21
-11.999545937225113
31
0
0
LINE
5
211
100
AcDbEntity
8
0
100
AcDbLine
10
13.749999999999998
20
-11.999545937225113
30
0
11
13.749999999999998
21
-11.749545937225111
31
0
0
LINE
5
212
100
AcDbEntity
8
0
100
AcDbLine
10
13.749999999999998
20
-11.749545937225111
30
0
11
14
21
-11.749545937225111
31
0
0
LINE
5
213
100
AcDbEntity
8
0
100
AcDbLine
10
14
20
-11.749545937225111
30
0
11
14
21
-11.999545937225113
31
0
0
LINE
5
214
100
AcDbEntity
8
0
100
AcDbLine
10
14
20
-11.999545937225113
30
0
11
14.249999999999998
21
-11.999545937225113
31
0
0
LINE
5
215
100
AcDbEntity
8
0
100
AcDbLine
10
14.249999999999998
20
-11.999545937225113
30
0
11
14.249999999999998
21
-11.749545937225111
31
0
0
LINE
5
216
100
AcDbEntity
8
0
100
AcDbLine
10
14.249999999999998
20
-11.749545937225111
30
0
11
14.500000000000002
21
-11.749545937225111
31
0
0
LINE
5
217
100
AcDbEntity
8
0
100
AcDbLine
10
14.500000000000002
20
-11.749545937225111
30
0
11
14.500000000000002
21
-11.999545937225113
31
0
0
LINE
5
218
100
AcDbEntity
8
0
100
AcDbLine
10
14.500000000000002
20
-11.999545937225113
30
0
11
14.749999999999996
21
-11.999545937225113
31
0
0
LINE
5
219
100
AcDbEntity
8
0
100
AcDbLine
10
14.749999999999996
20
-11.999545937225113
30
0
11
14.749999999999996
21
-11.749545937225111
31
0
0
LINE
5
220
100
AcDbEntity
8
0
100
AcDbLine
10
14.749999999999996
20
-11.749545937225111
30
0
11
15
21
-11.749545937225111
31
0
0
LINE
5
221
100
AcDbEntity
8
0
100
AcDbLine
10
15
20
-11.749545937225111
30
0
11
15
21
-11.999545937225113
31
0
0
LINE
5
222
100
AcDbEntity
8
0
100
AcDbLine
10
15
20
-11.999545937225113
30
0
11
15.249999999999998
21
-11.999545937225113
31
0
0
LINE
5
223
100
AcDbEntity
8
0
100
AcDbLine
10
15.249999999999998
20
-11.999545937225113
30
0
11
15.249999999999998
21
-11.749545937225111
31
0
0
LINE
5
224
100
AcDbEntity
8
0
100
AcDbLine
10
15.249999999999998
20
-11.749545937225111
30
0
11
15.5
21
-11.749545937225111
31
0
0
LINE
5
225
100
AcDbEntity
8
0
100
AcDbLine
10
15.5
20
-11.749545937225111
30
0
11
15.5
21
-11.999545937225113
31
0
0
LINE
5
226
100
AcDbEntity
8
0
100
AcDbLine
10
15.5
20
-11.999545937225113
30
0
11
15.749999999999996
21
-11.999545937225113
31
0
0
LINE
5
227
100
AcDbEntity
8
0
100
AcDbLine
10
15.749999999999996
20
-11.999545937225113
30
0
11
15.749999999999996
21
-11.749545937225111
31
0
0
LINE
5
228
100
AcDbEntity
8
0
100
AcDbLine
10
15.749999999999996
20
-11.749545937225111
30
0
11
15.999999999999998
21
-11.749545937225111
31
0
0
LINE
5
229
100
AcDbEntity
8
0
100
AcDbLine
10
15.999999999999998
20
-11.749545937225111
30
0
11
15.999999999999998
21
-11.999545937225113
31
0
0
LINE
5
230
100
AcDbEntity
8
0
100
AcDbLine
10
15.999999999999998
20
-11.999545937225113
30
0
11
16.249999999999996
21
-11.999545937225113
31
0
0
LINE
5
231
100
AcDbEntity
8
0
100
AcDbLine
10
16.249999999999996
20
-11.999545937225113
30
0
11
16.249999999999996
21
-11.749545937225111
31
0
0
LINE
5
232
100
AcDbEntity
8
0
100
AcDbLine
10
16.249999999999996
20
-11.749545937225111
30
0
11
16.5
21
-11.749545937225111
31
0
0
LINE
5
233
100
AcDbEntity
8
0
100
AcDbLine
10
16.5
20
-11.749545937225111
30
0
11
16.5
21
-11.999545937225113
31
0
0
LINE
5
234
100
AcDbEntity
8
0
100
AcDbLine
10
16.5
20
-11.999545937225113
30
0
11
16.75
21
-11.999545937225113
31
0
0
LINE
5
235
100
AcDbEntity
8
0
100
AcDbLine
10
16.75
20
-11.999545937225113
30
0
11
16.75
21
-11.749545937225111
31
0
0
LINE
5
236
100
AcDbEntity
8
0
100
AcDbLine
10
16.75
20
-11.749545937225111
30
0
11
17
21
-11.749545937225111
31
0
0
LINE
5
237
100
AcDbEntity
8
0
100
AcDbLine
10
17
20
-11.749545937225111
30
0
11
17
21
-11.999545937225113
31
0
0
LINE
5
238
100
AcDbEntity
8
0
100
AcDbLine
10
17
20
-11.999545937225113
30
0
11
17.249999999999996
21
-11.999545937225113
31
0
0
LINE
5
239
100
AcDbEntity
8
0
100
AcDbLine
10
17.249999999999996
20
-11.999545937225113
30
0
11
17.249999999999996
21
-11.749545937225111
31
0
0
LINE
5
240
100
AcDbEntity
8
0
100
AcDbLine
10
17.249999999999996
20
-11.749545937225111
30
0
11
17.5
21
-11.749545937225111
31
0
0
LINE
5
241
100
AcDbEntity
8
0
100
AcDbLine
10
17.5
20
-11.749545937225111
30
0
11
17.5
21
-11.999545937225113
31
0
0
LINE
5
242
100
AcDbEntity
8
0
100
AcDbLine
10
17.5
20
-11.999545937225113
30
0
11
17.75
21
-11.999545937225113
31
0
0
LINE
5
243
100
AcDbEntity
8
0
100
AcDbLine
10
17.75
20
-11.999545937225113
30
0
11
17.75
21
-11.749545937225111
31
0
0
LINE
5
244
100
AcDbEntity
8
0
100
AcDbLine
10
17.75
20
-11.749545937225111
30
0
11
18
21
-11.749545937225111
31
0
0
LINE
5
245
100
AcDbEntity
8
0
100
AcDbLine
10
17.9999997
20
-11.749545937225111
30
0
11
17.9999997
21
-0.24954568988930323
31
0
0
LINE
5
246
100
AcDbEntity
8
0
100
AcDbLine
10
18
20
-0.2495456898893032
30
0
11
17.999999999999996
21
0.00045406277489026743
31
0
0
LINE
5
247
100
AcDbEntity
8
0
100
AcDbLine
10
17.999999999999996
20
0.00045406277489026743
30
0
11
17.75
21
0.00045406277489028223
31
0
0
LINE
5
248
100
AcDbEntity
8
0
100
AcDbLine
10
17.75
20
0.00045406277489028223
30
0
11
17.75
21
-0.24954593722511173
31
0
0
LINE
5
249
100
AcDbEntity
8
0
100
AcDbLine
10
17.75
20
-0.24954593722511173
30
0
11
17.5
21
-0.24954593722511173
31
0
0
LINE
5
250
100
AcDbEntity
8
0
100
AcDbLine
10
17.5
20
-0.2495456898893032
30
0
11
17.5
21
0.00045406277489026743
31
0
0
LINE
5
251
100
AcDbEntity
8
0
100
AcDbLine
10
17.5
20
0.00045406277489026743
30
0
11
17.249999999999996
21
0.00045406277489028223
31
0
0
LINE
5
252
100
AcDbEntity
8
0
100
AcDbLine
10
17.249999999999996
20
0.00045406277489028223
30
0
11
17.249999999999996
21
-0.24954593722511173
31
0
0
LINE
5
253
100
AcDbEntity
8
0
100
AcDbLine
10
17.249999999999996
20
-0.24954593722511173
30
0
11
17
21
-0.24954593722511173
31
0
0
LINE
5
254
100
AcDbEntity
8
0
100
AcDbLine
10
17
20
-0.2495456898893032
30
0
11
17
21
0.00045406277489026743
31
0
0
LINE
5
255
100
AcDbEntity
8
0
100
AcDbLine
10
17
20
0.00045406277489026743
30
0
11
16.75
21
0.00045406277489028223
31
0
0
LINE
5
256
100
AcDbEntity
8
0
100
AcDbLine
10
16.75
20
0.00045406277489028223
30
0
11
16.75
21
-0.24954593722511173
31
0
0
LINE
5
257
100
AcDbEntity
8
0
100
AcDbLine
10
16.75
20
-0.24954593722511173
30
0
11
16.5
21
-0.24954593722511173
31
0
0
LINE
5
258
100
AcDbEntity
8
0
100
AcDbLine
10
16.5
20
-0.2495456898893032
30
0
11
16.5
21
0.00045406277489026743
31
0
0
LINE
5
259
100
AcDbEntity
8
0
100
AcDbLine
10
16.5
20
0.00045406277489026743
30
0
11
16.249999999999996
21
0.00045406277489028223
31
0
0
LINE
5
260
100
AcDbEntity
8
0
100
AcDbLine
10
16.249999999999996
20
0.00045406277489028223
30
0
11
16.249999999999996
21
-0.24954593722511173
31
0
0
LINE
5
261
100
AcDbEntity
8
0
100
AcDbLine
10
16.249999999999996
20
-0.24954593722511173
30
0
11
15.999999999999998
21
-0.24954593722511173
31
0
0
LINE
5
262
100
AcDbEntity
8
0
100
AcDbLine
10
15.999999999999998
20
-0.2495456898893032
30
0
11
15.999999999999998
21
0.00045406277489026743
31
0
0
LINE
5
263
100
AcDbEntity
8
0
100
AcDbLine
10
15.999999999999998
20
0.00045406277489026743
30
0
11
15.749999999999996
21
0.00045406277489028223
31
0
0
LINE
5
264
100
AcDbEntity
8
0
100
AcDbLine
10
15.749999999999996
20
0.00045406277489028223
30
0
11
15.749999999999996
21
-0.24954593722511173
31
0
0
LINE
5
265
100
AcDbEntity
8
0
100
AcDbLine
10
15.749999999999996
20
-0.24954593722511173
30
0
11
15.499999999999998
21
-0.24954593722511173
31
0
0
LINE
5
266
100
AcDbEntity
8
0
100
AcDbLine
10
15.5
20
-0.2495456898893032
30
0
11
15.5
21
0.00045406277489026743
31
0
0
LINE
5
267
100
AcDbEntity
8
0
100
AcDbLine
10
15.5
20
0.00045406277489026743
30
0
11
15.249999999999998
21
0.00045406277489028223
31
0
0
LINE
5
268
100
AcDbEntity
8
0
100
AcDbLine
10
15.249999999999998
20
0.00045406277489028223
30
0
11
15.249999999999998
21
-0.24954593722511173
31
0
0
LINE
5
269
100
AcDbEntity
8
0
100
AcDbLine
10
15.249999999999998
20
-0.24954593722511173
30
0
11
15
21
-0.24954593722511173
31
0
0
LINE
5
270
100
AcDbEntity
8
0
100
AcDbLine
10
15
20
-0.2495456898893032
30
0
11
15
21
0.00045406277489026743
31
0
0
LINE
5
271
100
AcDbEntity
8
0
100
AcDbLine
10
15
20
0.00045406277489026743
30
0
11
14.749999999999996
21
0.00045406277489028223
31
0
0
LINE
5
272
100
AcDbEntity
8
0
100
AcDbLine
10
14.749999999999996
20
0.00045406277489028223
30
0
11
14.749999999999996
21
-0.24954593722511173
31
0
0
LINE
5
273
100
AcDbEntity
8
0
100
AcDbLine
10
14.749999999999996
20
-0.24954593722511173
30
0
11
14.499999999999998
21
-0.24954593722511173
31
0
0
LINE
5
274
100
AcDbEntity
8
0
100
AcDbLine
10
14.500000000000002
20
-0.2495456898893032
30
0
11
14.500000000000002
21
0.00045406277489026743
31
0
0
LINE
5
275
100
AcDbEntity
8
0
100
AcDbLine
10
14.500000000000002
20
0.00045406277489026743
30
0
11
14.249999999999998
21
0.00045406277489028223
31
0
0
LINE
5
276
100
AcDbEntity
8
0
100
AcDbLine
10
14.249999999999998
20
0.00045406277489028223
30
0
11
14.249999999999998
21
-0.24954593722511173
31
0
0
LINE
5
277
100
AcDbEntity
8
0
100
AcDbLine
10
14.249999999999998
20
-0.24954593722511173
30
0
11
14
21
-0.24954593722511173
31
0
0
LINE
5
278
100
AcDbEntity
8
0
100
AcDbLine
10
14
20
-0.2495456898893032
30
0
11
14
21
0.00045406277489026743
31
0
0
LINE
5
279
100
AcDbEntity
8
0
100
AcDbLine
10
14
20
0.00045406277489026743
30
0
11
13.749999999999998
21
0.00045406277489028223
31
0
0
LINE
5
280
100
AcDbEntity
8
0
100
AcDbLine
10
13.749999999999998
20
0.00045406277489028223
30
0
11
13.749999999999998
21
-0.24954593722511173
31
0
0
LINE
5
281
100
AcDbEntity
8
0
100
AcDbLine
10
13.749999999999998
20
-0.24954593722511173
30
0
11
13.499999999999998
21
-0.24954593722511173
31
0
0
LINE
5
282
100
AcDbEntity
8
0
100
AcDbLine
10
13.500000000000002
20
-0.2495456898893032
30
0
11
13.500000000000002
21
0.00045406277489026743
31
0
0
LINE
5
283
100
AcDbEntity
8
0
100
AcDbLine
10
13.500000000000002
20
0.00045406277489026743
30
0
11
13.25
21
0.00045406277489028223
31
0
0
LINE
5
284
100
AcDbEntity
8
0
100
AcDbLine
10
13.25
20
0.00045406277489028223
30
0
11
13.25
21
-0.24954593722511173
31
0
0
LINE
5
285
100
AcDbEntity
8
0
100
AcDbLine
10
13.25
20
-0.24954593722511173
30
0
11
13
21
-0.24954593722511173
31
0
0
LINE
5
286
100
AcDbEntity
8
0
100
AcDbLine
10
13
20
-0.2495456898893032
30
0
11
13
21
0.00045406277489026743
31
0
0
LINE
5
287
100
AcDbEntity
8
0
100
AcDbLine
10
13
20
0.00045406277489026743
30
0
11
12.749999999999998
21
0.00045406277489028223
31
0
0
LINE
5
288
100
AcDbEntity
8
0
100
AcDbLine
10
12.749999999999998
20
0.00045406277489028223
30
0
11
12.749999999999998
21
-0.24954593722511173
31
0
0
LINE
5
289
100
AcDbEntity
8
0
100
AcDbLine
10
12.749999999999998
20
-0.24954593722511173
30
0
11
12.499999999999998
21
-0.24954593722511173
31
0
0
LINE
5
290
100
AcDbEntity
8
0
100
AcDbLine
10
12.499999999999998
20
-0.2495456898893032
30
0
11
12.499999999999998
21
0.00045406277489026743
31
0
0
LINE
5
291
100
AcDbEntity
8
0
100
AcDbLine
10
12.499999999999998
20
0.00045406277489026743
30
0
11
12.25
21
0.00045406277489028223
31
0
0
LINE
5
292
100
AcDbEntity
8
0
100
AcDbLine
10
12.25
20
0.00045406277489028223
30
0
11
12.25
21
-0.24954593722511173
31
0
0
LINE
5
293
100
AcDbEntity
8
0
100
AcDbLine
10
12.25
20
-0.24954593722511173
30
0
11
12
21
-0.24954593722511173
31
0
0
LINE
5
294
100
AcDbEntity
8
0
100
AcDbLine
10
12
20
-0.2495456898893032
30
0
11
12
21
0.00045406277489026743
31
0
0
LINE
5
295
100
AcDbEntity
8
0
100
AcDbLine
10
12
20
0.00045406277489026743
30
0
11
11.75
21
0.00045406277489028223
31
0
0
LINE
5
296
100
AcDbEntity
8
0
100
AcDbLine
10
11.75
20
0.00045406277489028223
30
0
11
11.75
21
-0.24954593722511173
31
0
0
LINE
5
297
100
AcDbEntity
8
0
100
AcDbLine
10
11.75
20
-0.24954593722511173
30
0
11
11.5
21
-0.24954593722511173
31
0
0
LINE
5
298
100
AcDbEntity
8
0
100
AcDbLine
10
11.5
20
-0.2495456898893032
30
0
11
11.5
21
0.00045406277489026743
31
0
0
LINE
5
299
100
AcDbEntity
8
0
100
AcDbLine
10
11.5
20
0.00045406277489026743
30
0
11
11.25
21
0.00045406277489028223
31
0
0
LINE
5
300
100
AcDbEntity
8
0
100
AcDbLine
10
11.25
20
0.00045406277489028223
30
0
11
11.25
21
-0.24954593722511173
31
0
0
LINE
5
301
100
AcDbEntity
8
0
100
AcDbLine
10
11.25
20
-0.24954593722511173
30
0
11
11
21
-0.24954593722511173
31
0
0
LINE
5
302
100
AcDbEntity
8
0
100
AcDbLine
10
11
20
-0.2495456898893032
30
0
11
11
21
0.00045406277489026743
31
0
0
LINE
5
303
100
AcDbEntity
8
0
100
AcDbLine
10
11
20
0.00045406277489026743
30
0
11
10.75
21
0.00045406277489028223
31
0
0
LINE
5
304
100
AcDbEntity
8
0
100
AcDbLine
10
10.75
20
0.00045406277489028223
30
0
11
10.75
21
-0.24954593722511173
31
0
0
LINE
5
305
100
AcDbEntity
8
0
100
AcDbLine
10
10.75
20
-0.24954593722511173
30
0
11
10.5
21
-0.24954593722511173
31
0
0
LINE
5
306
100
AcDbEntity
8
0
100
AcDbLine
10
10.499999999999998
20
-0.2495456898893032
30
0
11
10.499999999999998
21
0.00045406277489026743
31
0
0
LINE
5
307
100
AcDbEntity
8
0
100
AcDbLine
10
10.499999999999998
20
0.00045406277489026743
30
0
11
10.25
21
0.00045406277489028223
31
0
0
LINE
5
308
100
AcDbEntity
8
0
100
AcDbLine
10
10.25
20
0.00045406277489028223
30
0
11
10.25
21
-0.24954593722511173
31
0
0
LINE
5
309
100
AcDbEntity
8
0
100
AcDbLine
10
10.25
20
-0.24954593722511173
30
0
11
9.9999999999999982
21
-0.24954593722511173
31
0
0
LINE
5
310
100
AcDbEntity
8
0
100
AcDbLine
10
9.9999999999999982
20
-0.2495456898893032
30
0
11
9.9999999999999982
21
0.00045406277489026743
31
0
0
LINE
5
311
100
AcDbEntity
8
0
100
AcDbLine
10
9.9999999999999982
20
0.00045406277489026743
30
0
11
9.75
21
0.00045406277489028223
31
0
0
LINE
5
312
100
AcDbEntity
8
0
100
AcDbLine
10
9.75
20
0.00045406277489028223
30
0
11
9.75
21
-0.24954593722511173
31
0
0
LINE
5
313
100
AcDbEntity
8
0
100
AcDbLine
10
9.75
20
-0.24954593722511173
30
0
11
9.4999999999999982
21
-0.24954593722511173
31
0
0
LINE
5
314
100
AcDbEntity
8
0
100
AcDbLine
10
9.4999999999999982
20
-0.2495456898893032
30
0
11
9.4999999999999982
21
0.00045406277489026743
31
0
0
LINE
5
315
100
AcDbEntity
8
0
100
AcDbLine
10
9.4999999999999982
20
0.00045406277489026743
30
0
11
9.25
21
0.00045406277489028223
31
0
0
LINE
5
316
100
AcDbEntity
8
0
100
AcDbLine
10
9.25
20
0.00045406277489028223
30
0
11
9.25
21
-0.24954593722511173
31
0
0
LINE
5
317
100
AcDbEntity
8
0
100
AcDbLine
10
9.25
20
-0.24954593722511173
30
0
11
8.9999999999999982
21
-0.24954593722511173
31
0
0
LINE
5
318
100
AcDbEntity
8
0
100
AcDbLine
10
8.9999999999999982
20
-0.2495456898893032
30
0
11
8.9999999999999982
21
0.00045406277489026743
31
0
0
LINE
5
319
100
AcDbEntity
8
0
100
AcDbLine
10
8.9999999999999982
20
0.00045406277489026743
30
0
11
8.75
21
0.00045406277489028223
31
0
0
LINE
5
320
100
AcDbEntity
8
0
100
AcDbLine
10
8.75
20
0.00045406277489028223
30
0
11
8.75
21
-0.24954593722511173
31
0
0
LINE
5
321
100
AcDbEntity
8
0
100
AcDbLine
10
8.75
20
-0.24954593722511173
30
0
11
8.5
21
-0.24954593722511173
31
0
0
LINE
5
322
100
AcDbEntity
8
0
100
AcDbLine
10
8.5
20
-0.2495456898893032
30
0
11
8.5
21
0.00045406277489026743
31
0
0
LINE
5
323
100
AcDbEntity
8
0
100
AcDbLine
10
8.5
20
0.00045406277489026743
30
0
11
8.25
21
0.00045406277489028223
31
0
0
LINE
5
324
100
AcDbEntity
8
0
100
AcDbLine
10
8.25
20
0.00045406277489028223
30
0
11
8.25
21
-0.24954593722511173
31
0
0
LINE
5
325
100
AcDbEntity
8
0
100
AcDbLine
10
8.25
20
-0.24954593722511173
30
0
11
7.9999999999999991
21
-0.24954593722511173
31
0
0
LINE
5
326
100
AcDbEntity
8
0
100
AcDbLine
10
7.9999999999999991
20
-0.2495456898893032
30
0
11
7.9999999999999991
21
0.00045406277489026743
31
0
0
LINE
5
327
100
AcDbEntity
8
0
100
AcDbLine
10
7.9999999999999991
20
0.00045406277489026743
30
0
11
7.75
21
0.00045406277489028223
31
0
0
LINE
5
328
100
AcDbEntity
8
0
100
AcDbLine
10
7.75
20
0.00045406277489028223
30
0
11
7.75
21
-0.24954593722511173
31
0
0
LINE
5
329
100
AcDbEntity
8
0
100
AcDbLine
10
7.75
20
-0.24954593722511173
30
0
11
7.5
21
-0.24954593722511173
31
0
0
LINE
5
330
100
AcDbEntity
8
0
100
AcDbLine
10
7.5
20
-0.2495456898893032
30
0
11
7.5
21
0.00045406277489026743
31
0
0
LINE
5
331
100
AcDbEntity
8
0
100
AcDbLine
10
7.5
20
0.00045406277489026743
30
0
11
7.2500000000000009
21
0.00045406277489028223
31
0
0
LINE
5
332
100
AcDbEntity
8
0
100
AcDbLine
10
7.2500000000000009
20
0.00045406277489028223
30
0
11
7.2500000000000009
21
-0.24954593722511173
31
0
0
LINE
5
333
100
AcDbEntity
8
0
100
AcDbLine
10
7.2500000000000009
20
-0.24954593722511173
30
0
11
7
21
-0.24954593722511173
31
0
0
LINE
5
334
100
AcDbEntity
8
0
100
AcDbLine
10
7
20
-0.2495456898893032
30
0
11
7
21
0.00045406277489026743
31
0
0
LINE
5
335
100
AcDbEntity
8
0
100
AcDbLine
10
7
20
0.00045406277489026743
30
0
11
6.7500000000000009
21
0.00045406277489028223
31
0
0
LINE
5
336
100
AcDbEntity
8
0
100
AcDbLine
10
6.7500000000000009
20
0.00045406277489028223
30
0
11
6.7500000000000009
21
-0.24954593722511173
31
0
0
LINE
5
337
100
AcDbEntity
8
0
100
AcDbLine
10
6.7500000000000009
20
-0.24954593722511173
30
0
11
6.5
21
-0.24954593722511173
31
0
0
LINE
5
338
100
AcDbEntity
8
0
100
AcDbLine
10
6.5
20
-0.2495456898893032
30
0
11
6.5
21
0.00045406277489026743
31
0
0
LINE
5
339
100
AcDbEntity
8
0
100
AcDbLine
10
6.5
20
0.00045406277489026743
30
0
11
6.2499999999999991
21
0.00045406277489028223
31
0
0
LINE
5
340
100
AcDbEntity
8
0
100
AcDbLine
10
6.2499999999999991
20
0.00045406277489028223
30
0
11
6.2499999999999991
21
-0.24954593722511173
31
0
0
LINE
5
341
100
AcDbEntity
8
0
100
AcDbLine
10
6.2499999999999991
20
-0.24954593722511173
30
0
11
6
21
-0.24954593722511173
31
0
0
LINE
5
342
100
AcDbEntity
8
0
100
AcDbLine
10
6
20
-0.2495456898893032
30
0
11
6
21
0.00045406277489026743
31
0
0
LINE
5
343
100
AcDbEntity
8
0
100
AcDbLine
10
6
20
0.00045406277489026743
30
0
11
5.75
21
0.00045406277489028223
31
0
0
LINE
5
344
100
AcDbEntity
8
0
100
AcDbLine
10
5.75
20
0.00045406277489028223
30
0
11
5.75
21
-0.24954593722511173
31
0
0
LINE
5
345
100
AcDbEntity
8
0
100
AcDbLine
10
5.75
20
-0.24954593722511173
30
0
11
5.5
21
-0.24954593722511173
31
0
0
LINE
5
346
100
AcDbEntity
8
0
100
AcDbLine
10
5.4999999999999991
20
-0.2495456898893032
30
0
11
5.4999999999999991
21
0.00045406277489026743
31
0
0
LINE
5
347
100
AcDbEntity
8
0
100
AcDbLine
10
5.4999999999999991
20
0.00045406277489026743
30
0
11
5.2499999999999991
21
0.00045406277489028223
31
0
0
LINE
5
348
100
AcDbEntity
8
0
100
AcDbLine
10
5.2499999999999991
20
0.00045406277489028223
30
0
11
5.2499999999999991
21
-0.24954593722511173
31
0
0
LINE
5
349
100
AcDbEntity
8
0
100
AcDbLine
10
5.2499999999999991
20
-0.24954593722511173
30
0
11
4.9999999999999991
21
-0.24954593722511173
31
0
0
LINE
5
350
100
AcDbEntity
8
0
100
AcDbLine
10
4.9999999999999991
20
-0.2495456898893032
30
0
11
4.9999999999999991
21
0.00045406277489026743
31
0
0
LINE
5
351
100
AcDbEntity
8
0
100
AcDbLine
10
4.9999999999999991
20
0.00045406277489026743
30
0
11
4.7499999999999991
21
0.00045406277489028223
31
0
0
LINE
5
352
100
AcDbEntity
8
0
100
AcDbLine
10
4.7499999999999991
20
0.00045406277489028223
30
0
11
4.7499999999999991
21
-0.24954593722511173
31
0
0
LINE
5
353
100
AcDbEntity
8
0
100
AcDbLine
10
4.7499999999999991
20
-0.24954593722511173
30
0
11
4.4999999999999991
21
-0.24954593722511173
31
0
0
LINE
5
354
100
AcDbEntity
8
0
100
AcDbLine
10
4.4999999999999991
20
-0.2495456898893032
30
0
11
4.4999999999999991
21
0.00045406277489026743
31
0
0
LINE
5
355
100
AcDbEntity
8
0
100
AcDbLine
10
4.4999999999999991
20
0.00045406277489026743
30
0
11
4.25
21
0.00045406277489028223
31
0
0
LINE
5
356
100
AcDbEntity
8
0
100
AcDbLine
10
4.25
20
0.00045406277489028223
30
0
11
4.25
21
-0.24954593722511173
31
0
0
LINE
5
357
100
AcDbEntity
8
0
100
AcDbLine
10
4.25
20
-0.24954593722511173
30
0
11
3.9999999999999996
21
-0.24954593722511173
31
0
0
LINE
5
358
100
AcDbEntity
8
0
100
AcDbLine
10
3.9999999999999996
20
-0.2495456898893032
30
0
11
3.9999999999999996
21
0.00045406277489026743
31
0
0
LINE
5
359
100
AcDbEntity
8
0
100
AcDbLine
10
3.9999999999999996
20
0.00045406277489026743
30
0
11
3.75
21
0.00045406277489028223
31
0
0
LINE
5
360
100
AcDbEntity
8
0
100
AcDbLine
10
3.75
20
0.00045406277489028223
30
0
11
3.75
21
-0.24954593722511173
31
0
0
LINE
5
361
100
AcDbEntity
8
0
100
AcDbLine
10
3.75
20
-0.24954593722511173
30
0
11
3.5
21
-0.24954593722511173
31
0
0
LINE
5
362
100
AcDbEntity
8
0
100
AcDbLine
10
3.5
20
-0.2495456898893032
30
0
11
3.5
21
0.00045406277489026743
31
0
0
LINE
5
363
100
AcDbEntity
8
0
100
AcDbLine
10
3.5
20
0.00045406277489026743
30
0
11
3.25
21
0.00045406277489028223
31
0
0
LINE
5
364
100
AcDbEntity
8
0
100
AcDbLine
10
3.25
20
0.00045406277489028223
30
0
11
3.25
21
-0.24954593722511173
31
0
0
LINE
5
365
100
AcDbEntity
8
0
100
AcDbLine
10
3.25
20
-0.24954593722511173
30
0
11
3
21
-0.24954593722511173
31
0
0
LINE
5
366
100
AcDbEntity
8
0
100
AcDbLine
10
2.9999999999999996
20
-0.2495456898893032
30
0
11
2.9999999999999996
21
0.00045406277489026743
31
0
0
LINE
5
367
100
AcDbEntity
8
0
100
AcDbLine
10
2.9999999999999996
20
0.00045406277489026743
30
0
11
2.7499999999999996
21
0.00045406277489028223
31
0
0
LINE
5
368
100
AcDbEntity
8
0
100
AcDbLine
10
2.7499999999999996
20
0.00045406277489028223
30
0
11
2.7499999999999996
21
-0.24954593722511173
31
0
0
LINE
5
369
100
AcDbEntity
8
0
100
AcDbLine
10
2.7499999999999996
20
-0.24954593722511173
30
0
11
2.4999999999999996
21
-0.24954593722511173
31
0
0
LINE
5
370
100
AcDbEntity
8
0
100
AcDbLine
10
2.4999999999999996
20
-0.2495456898893032
30
0
11
2.4999999999999996
21
0.00045406277489026743
31
0
0
LINE
5
371
100
AcDbEntity
8
0
100
AcDbLine
10
2.4999999999999996
20
0.00045406277489026743
30
0
11
2.2499999999999996
21
0.00045406277489028223
31
0
0
LINE
5
372
100
AcDbEntity
8
0
100
AcDbLine
10
2.2499999999999996
20
0.00045406277489028223
30
0
11
2.2499999999999996
21
-0.24954593722511173
31
0
0
LINE
5
373
100
AcDbEntity
8
0
100
AcDbLine
10
2.2499999999999996
20
-0.24954593722511173
30
0
11
1.9999999999999998
21
-0.24954593722511173
31
0
0
LINE
5
374
100
AcDbEntity
8
0
100
AcDbLine
10
1.9999999999999998
20
-0.2495456898893032
30
0
11
1.9999999999999998
21
0.00045406277489026743
31
0
0
LINE
5
375
100
AcDbEntity
8
0
100
AcDbLine
10
1.9999999999999998
20
0.00045406277489026743
30
0
11
1.75
21
0.00045406277489028223
31
0
0
LINE
5
376
100
AcDbEntity
8
0
100
AcDbLine
10
1.75
20
0.00045406277489028223
30
0
11
1.75
21
-0.24954593722511173
31
0
0
LINE
5
377
100
AcDbEntity
8
0
100
AcDbLine
10
1.75
20
-0.24954593722511173
30
0
11
1.5
21
-0.24954593722511173
31
0
0
LINE
5
378
100
AcDbEntity
8
0
100
AcDbLine
10
1.5
20
-0.2495456898893032
30
0
11
1.5
21
0.00045406277489026743
31
0
0
LINE
5
379
100
AcDbEntity
8
0
100
AcDbLine
10
1.5
20
0.00045406277489026743
30
0
11
1.2499999999999998
21
0.00045406277489028223
31
0
0
LINE
5
380
100
AcDbEntity
8
0
100
AcDbLine
10
1.2499999999999998
20
0.00045406277489028223
30
0
11
1.2499999999999998
21
-0.24954593722511173
31
0
0
LINE
5
381
100
AcDbEntity
8
0
100
AcDbLine
10
1.2499999999999998
20
-0.24954593722511173
30
0
11
0.99999999999999989
21
-0.24954593722511173
31
0
0
LINE
5
382
100
AcDbEntity
8
0
100
AcDbLine
10
0.99999999999999989
20
-0.2495456898893032
30
0
11
0.99999999999999989
21
0.00045406277489026743
31
0
0
LINE
5
383
100
AcDbEntity
8
0
100
AcDbLine
10
0.99999999999999989
20
0.00045406277489026743
30
0
11
0.75
21
0.00045406277489028223
31
0
0
LINE
5
384
100
AcDbEntity
8
0
100
AcDbLine
10
0.75
20
0.00045406277489028223
30
0
11
0.75
21
-0.24954593722511173
31
0
0
LINE
5
385
100
AcDbEntity
8
0
100
AcDbLine
10
0.75
20
-0.24954593722511173
30
0
11
0.49999999999999994
21
-0.24954593722511173
31
0
0
LINE
5
386
100
AcDbEntity
8
0
100
AcDbLine
10
0.49999999999999994
20
-0.2495456898893032
30
0
11
0.49999999999999994
21
0.00045406277489026743
31
0
0
LINE
5
387
100
AcDbEntity
8
0
100
AcDbLine
10
0.49999999999999994
20
0.00045406277489026743
30
0
11
0.24999999999999997
21
0.00045406277489028223
31
0
0
LINE
5
388
100
AcDbEntity
8
0
100
AcDbLine
10
0.24999999999999997
20
0.00045406277489028223
30
0
11
0.24999999999999997
21
-0.24954593722511173
31
0
0
LINE
5
389
100
AcDbEntity
8
0
100
AcDbLine
10
0.24999999999999997
20
-0.24954593722511173
30
0
11
0
21
-0.24954593722511173
31
0
0
ENDSEC
0
SECTION
2
OBJECTS
0
DICTIONARY
5
C
100
AcDbDictionary
3
ACAD_GROUP
350
D
3
ACAD_MLINESTYLE
350
17
0
DICTIONARY
5
D
100
AcDbDictionary
0
DICTIONARY
5
1A
330
C
100
AcDbDictionary
0
DICTIONARY
5
17
100
AcDbDictionary
0
ENDSEC
0
EOF
