0
SECTION
2
HEADER
9
$INSUNITS
70
1
9
$ACADVER
1
AC1014
9
$HANDSEED
5
FFFF
0
ENDSEC
0
SECTION
2
TABLES
0
TABLE
2
VPORT
5
8
100
AcDbSymbolTable
0
ENDTAB
0
TABLE
2
LTYPE
5
5
100
AcDbSymbolTable
0
LTYPE
5
14
100
AcDbSymbolTableRecord
100
AcDbLinetypeTableRecord
2
BYBLOCK
70
0
0
LTYPE
5
15
100
AcDbSymbolTableRecord
100
AcDbLinetypeTableRecord
2
BYLAYER
70
0
0
ENDTAB
0
TABLE
2
LAYER
5
2
100
AcDbSymbolTable
70
2
0
LAYER
5
50
100
AcDbSymbolTableRecord
100
AcDbLayerTableRecord
2
0
70
0
6
CONTINUOUS
0
ENDTAB
0
TABLE
2
STYLE
5
3
100
AcDbSymbolTable
70
1
0
STYLE
5
11
100
AcDbSymbolTableRecord
100
AcDbTextStyleTableRecord
2
STANDARD
70
0
0
ENDTAB
0
TABLE
2
VIEW
5
6
100
AcDbSymbolTable
70
0
0
ENDTAB
0
TABLE
2
UCS
5
7
100
AcDbSymbolTable
70
0
0
ENDTAB
0
TABLE
2
APPID
5
9
100
AcDbSymbolTable
70
2
0
APPID
5
12
100
AcDbSymbolTableRecord
100
AcDbRegAppTableRecord
2
ACAD
70
0
0
ENDTAB
0
TABLE
2
DIMSTYLE
5
A
100
AcDbSymbolTable
70
1
0
ENDTAB
0
TABLE
2
BLOCK_RECORD
5
1
100
AcDbSymbolTable
70
1
0
BLOCK_RECORD
5
1F
100
AcDbSymbolTableRecord
100
AcDbBlockTableRecord
2
*MODEL_SPACE
0
BLOCK_RECORD
5
1B
100
AcDbSymbolTableRecord
100
AcDbBlockTableRecord
2
*PAPER_SPACE
0
ENDTAB
0
ENDSEC
0
SECTION
2
BLOCKS
0
BLOCK
5
20
100
AcDbEntity
100
AcDbBlockBegin
2
*MODEL_SPACE
0
ENDBLK
5
21
100
AcDbEntity
100
AcDbBlockEnd
0
BLOCK
5
1C
100
AcDbEntity
100
AcDbBlockBegin
2
*PAPER_SPACE
0
ENDBLK
5
1D
100
AcDbEntity
100
AcDbBlockEnd
0
ENDSEC
0
SECTION
2
ENTITIES
0
CIRCLE
5
100
100
AcDbEntity
8
0
100
AcDbCircle
10
-7.2499999999999973
20
-0.62499999999999989
30
0
40
0.031249999999999549
210
0
220
0
230
1
0
CIRCLE
5
101
100
AcDbEntity
8
0
100
AcDbCircle
10
-0.37499999999999795
20
-7.5003820115830715
30
0
40
0.031249999999999986
210
0
220
0
230
1
0
CIRCLE
5
102
100
AcDbEntity
8
0
100
AcDbCircle
10
-10.749999999999998
20
-11.375382011583062
30
0
40
0.031250000000000951
210
0
220
0
230
1
0
CIRCLE
5
103
100
AcDbEntity
8
0
100
AcDbCircle
10
-17.624999999999996
20
-4.4999999999999991
30
0
40
0.031249999999999549
210
0
220
0
230
1
0
CIRCLE
5
104
100
AcDbEntity
8
0
100
AcDbCircle
10
-17.624999999999996
20
-7.5003820115830608
30
0
40
0.031249999999999549
210
0
220
0
230
1
0
CIRCLE
5
105
100
AcDbEntity
8
0
100
AcDbCircle
10
-7.2499999999999991
20
-11.375382011583062
30
0
40
0.031249999999999549
210
0
220
0
230
1
0
CIRCLE
5
106
100
AcDbEntity
8
0
100
AcDbCircle
10
-0.37499999999999795
20
-4.5
30
0
40
0.031250000000000208
210
0
220
0
230
1
0
CIRCLE
5
107
100
AcDbEntity
8
0
100
AcDbCircle
10
-10.749999999999998
20
-0.62499999999999989
30
0
40
0.031249999999999549
210
0
220
0
230
1
0
CIRCLE
5
108
100
AcDbEntity
8
0
100
AcDbCircle
10
-3.7499999999999978
20
-0.62499999999999989
30
0
40
0.031250000000000243
210
0
220
0
230
1
0
CIRCLE
5
109
100
AcDbEntity
8
0
100
AcDbCircle
10
-0.37499999999999795
20
-10.500382011583062
30
0
40
0.031250000000000208
210
0
220
0
230
1
0
CIRCLE
5
110
100
AcDbEntity
8
0
100
AcDbCircle
10
-14.249999999999996
20
-11.375382011583062
30
0
40
0.031249999999999549
210
0
220
0
230
1
0
CIRCLE
5
111
100
AcDbEntity
8
0
100
AcDbCircle
10
-17.624999999999996
20
-1.5
30
0
40
0.031249999999999549
210
0
220
0
230
1
0
CIRCLE
5
112
100
AcDbEntity
8
0
100
AcDbCircle
10
-17.624999999999996
20
-10.500382011583062
30
0
40
0.031249999999999549
210
0
220
0
230
1
0
CIRCLE
5
113
100
AcDbEntity
8
0
100
AcDbCircle
10
-3.7499999999999978
20
-11.375382011583062
30
0
40
0.031249999999999549
210
0
220
0
230
1
0
CIRCLE
5
114
100
AcDbEntity
8
0
100
AcDbCircle
10
-0.37499999999999795
20
-1.5000000000000033
30
0
40
0.031249999999999899
210
0
220
0
230
1
0
CIRCLE
5
115
100
AcDbEntity
8
0
100
AcDbCircle
10
-14.249999999999996
20
-0.62499999999999989
30
0
40
0.031249999999999549
210
0
220
0
230
1
0
LWPOLYLINE
5
116
100
AcDbEntity
8
0
100
AcDbPolyline
90
24
70
1
43
0.0
10
5.4330019275512633e-16
20
1.3112870369588462e-16
42
-0.41421356237309576
10
0.25000000000000061
20
-0.25000000000000061
10
0.25000000000000122
20
-4.9375001914857872
42
-0.41421356237309681
10
5.2451481478353848e-16
20
-5.1875001914857881
10
-1.3125
20
-5.1875001914857872
42
0.41421356237309509
10
-1.5624999999999998
20
-5.4375001914857872
10
-1.5624999999999998
20
-6.5625001914857846
42
0.41421356237309509
10
-1.3125
20
-6.8125001914857872
10
6.5738216497056775e-16
20
-6.8125001914857872
42
-0.41421356237309132
10
0.25000000000000061
20
-7.0625001914857872
10
0.2499999999999995
20
-11.750382011583062
42
-0.4142135623730937
10
0
20
-12.000382011583062
10
-17.999999999999996
20
-12.000382011583064
42
-0.41421356237309825
10
-18.249999999999993
20
-11.750382011583062
10
-18.249999999999993
20
-7.0628818200972745
42
-0.41421356237309825
10
-17.999999999999996
20
-6.8128818200972736
10
-16.687499999999993
20
-6.8128818200972736
42
0.41421356237309509
10
-16.437499999999996
20
-6.5628818200972727
10
-16.437499999999996
20
-5.4378818200972745
42
0.41421356237309509
10
-16.687499999999996
20
-5.1878818200972745
10
-17.999999999999996
20
-5.1878818200972701
42
-0.41421356237309997
10
-18.249999999999993
20
-4.9378818200972745
10
-18.249999999999993
20
-0.24999999999999994
42
-0.41421356237309759
10
-17.999999999999993
20
0
0
ENDSEC
0
SECTION
2
OBJECTS
0
DICTIONARY
5
C
100
AcDbDictionary
3
ACAD_GROUP
350
D
3
ACAD_MLINESTYLE
350
17
0
DICTIONARY
5
D
100
AcDbDictionary
0
DICTIONARY
5
1A
330
C
100
AcDbDictionary
0
DICTIONARY
5
17
100
AcDbDictionary
0
ENDSEC
0
EOF
