0
SECTION
2
HEADER
9
$INSUNITS
70
1
9
$ACADVER
1
AC1014
9
$HANDSEED
5
FFFF
0
ENDSEC
0
SECTION
2
TABLES
0
TABLE
2
VPORT
5
8
100
AcDbSymbolTable
0
ENDTAB
0
TABLE
2
LTYPE
5
5
100
AcDbSymbolTable
0
LTYPE
5
14
100
AcDbSymbolTableRecord
100
AcDbLinetypeTableRecord
2
BYBLOCK
70
0
0
LTYPE
5
15
100
AcDbSymbolTableRecord
100
AcDbLinetypeTableRecord
2
BYLAYER
70
0
0
ENDTAB
0
TABLE
2
LAYER
5
2
100
AcDbSymbolTable
70
2
0
LAYER
5
50
100
AcDbSymbolTableRecord
100
AcDbLayerTableRecord
2
0
70
0
6
CONTINUOUS
0
ENDTAB
0
TABLE
2
STYLE
5
3
100
AcDbSymbolTable
70
1
0
STYLE
5
11
100
AcDbSymbolTableRecord
100
AcDbTextStyleTableRecord
2
STANDARD
70
0
0
ENDTAB
0
TABLE
2
VIEW
5
6
100
AcDbSymbolTable
70
0
0
ENDTAB
0
TABLE
2
UCS
5
7
100
AcDbSymbolTable
70
0
0
ENDTAB
0
TABLE
2
APPID
5
9
100
AcDbSymbolTable
70
2
0
APPID
5
12
100
AcDbSymbolTableRecord
100
AcDbRegAppTableRecord
2
ACAD
70
0
0
ENDTAB
0
TABLE
2
DIMSTYLE
5
A
100
AcDbSymbolTable
70
1
0
ENDTAB
0
TABLE
2
BLOCK_RECORD
5
1
100
AcDbSymbolTable
70
1
0
BLOCK_RECORD
5
1F
100
AcDbSymbolTableRecord
100
AcDbBlockTableRecord
2
*MODEL_SPACE
0
BLOCK_RECORD
5
1B
100
AcDbSymbolTableRecord
100
AcDbBlockTableRecord
2
*PAPER_SPACE
0
ENDTAB
0
ENDSEC
0
SECTION
2
BLOCKS
0
BLOCK
5
20
100
AcDbEntity
100
AcDbBlockBegin
2
*MODEL_SPACE
0
ENDBLK
5
21
100
AcDbEntity
100
AcDbBlockEnd
0
BLOCK
5
1C
100
AcDbEntity
100
AcDbBlockBegin
2
*PAPER_SPACE
0
ENDBLK
5
1D
100
AcDbEntity
100
AcDbBlockEnd
0
ENDSEC
0
SECTION
2
ENTITIES
0
CIRCLE
5
100
100
AcDbEntity
8
0
100
AcDbCircle
10
-7.2499999999999973
20
-0.62500000000000067
30
0
40
0.031249999999999549
210
0
220
-0
230
1
0
CIRCLE
5
101
100
AcDbEntity
8
0
100
AcDbCircle
10
-0.37499999999999795
20
-7.5003820115830715
30
0
40
0.031249999999999986
210
0
220
-0
230
1
0
CIRCLE
5
102
100
AcDbEntity
8
0
100
AcDbCircle
10
-10.749999999999998
20
-11.375382011583062
30
0
40
0.031250000000000951
210
0
220
-0
230
1
0
CIRCLE
5
103
100
AcDbEntity
8
0
100
AcDbCircle
10
-17.624999999999996
20
-4.5
30
0
40
0.031249999999999549
210
0
220
-0
230
1
0
CIRCLE
5
104
100
AcDbEntity
8
0
100
AcDbCircle
10
-17.624999999999996
20
-7.5003820115830608
30
0
40
0.031249999999999549
210
0
220
-0
230
1
0
CIRCLE
5
105
100
AcDbEntity
8
0
100
AcDbCircle
10
-7.2499999999999991
20
-11.375382011583062
30
0
40
0.031249999999999549
210
0
220
-0
230
1
0
CIRCLE
5
106
100
AcDbEntity
8
0
100
AcDbCircle
10
-0.37499999999999795
20
-4.5000000000000009
30
0
40
0.031250000000000208
210
0
220
-0
230
1
0
CIRCLE
5
107
100
AcDbEntity
8
0
100
AcDbCircle
10
-10.749999999999998
20
-0.62500000000000067
30
0
40
0.031249999999999549
210
0
220
-0
230
1
0
CIRCLE
5
108
100
AcDbEntity
8
0
100
AcDbCircle
10
-3.7499999999999978
20
-0.62500000000000067
30
0
40
0.031250000000000243
210
0
220
-0
230
1
0
CIRCLE
5
109
100
AcDbEntity
8
0
100
AcDbCircle
10
-0.37499999999999795
20
-10.500382011583062
30
0
40
0.031250000000000208
210
0
220
-0
230
1
0
CIRCLE
5
110
100
AcDbEntity
8
0
100
AcDbCircle
10
-14.249999999999996
20
-11.375382011583062
30
0
40
0.031249999999999549
210
0
220
-0
230
1
0
CIRCLE
5
111
100
AcDbEntity
8
0
100
AcDbCircle
10
-17.624999999999996
20
-1.5000000000000007
30
0
40
0.031249999999999549
210
0
220
-0
230
1
0
CIRCLE
5
112
100
AcDbEntity
8
0
100
AcDbCircle
10
-17.624999999999996
20
-10.500382011583062
30
0
40
0.031249999999999549
210
0
220
-0
230
1
0
CIRCLE
5
113
100
AcDbEntity
8
0
100
AcDbCircle
10
-3.7499999999999978
20
-11.375382011583062
30
0
40
0.031249999999999549
210
0
220
-0
230
1
0
CIRCLE
5
114
100
AcDbEntity
8
0
100
AcDbCircle
10
-0.37499999999999795
20
-1.500000000000004
30
0
40
0.031249999999999899
210
0
220
-0
230
1
0
CIRCLE
5
115
100
AcDbEntity
8
0
100
AcDbCircle
10
-14.249999999999996
20
-0.62500000000000067
30
0
40
0.031249999999999549
210
0
220
-0
230
1
0
LWPOLYLINE
5
116
100
AcDbEntity
8
0
100
AcDbPolyline
90
288
70
1
43
0.0
10
-13.25
20
-6.4103659799353308e-07
10
-13
20
-6.4103659799436381e-07
10
-13
20
-0.25000064103659858
10
-12.749999999999998
20
-0.25000064103659858
10
-12.749999999999998
20
-6.4103659799353308e-07
10
-12.499999999999998
20
-6.4103659799436381e-07
10
-12.499999999999998
20
-0.25000064103659858
10
-12.25
20
-0.25000064103659858
10
-12.25
20
-6.4103659799353308e-07
10
-12
20
-6.4103659799436381e-07
10
-12
20
-0.25000064103659858
10
-11.75
20
-0.25000064103659858
10
-11.75
20
-6.4103659799353308e-07
10
-11.5
20
-6.4103659799436381e-07
10
-11.5
20
-0.25000064103659858
10
-11.25
20
-0.25000064103659858
10
-11.25
20
-6.4103659799353308e-07
10
-11
20
-6.4103659799436381e-07
10
-11
20
-0.25000064103659858
10
-10.75
20
-0.25000064103659858
10
-10.75
20
-6.4103659799353308e-07
10
-10.499999999999998
20
-6.4103659799436381e-07
10
-10.499999999999998
20
-0.25000064103659858
10
-10.25
20
-0.25000064103659858
10
-10.25
20
-6.4103659799353308e-07
10
-9.9999999999999982
20
-6.4103659799436381e-07
10
-9.9999999999999982
20
-0.25000064103659858
10
-9.75
20
-0.25000064103659858
10
-9.75
20
-6.4103659799353308e-07
10
-9.4999999999999982
20
-6.4103659799436381e-07
10
-9.4999999999999982
20
-0.25000064103659858
10
-9.25
20
-0.25000064103659858
10
-9.25
20
-6.4103659799353308e-07
10
-8.9999999999999982
20
-6.4103659799436381e-07
10
-8.9999999999999982
20
-0.25000064103659858
10
-8.75
20
-0.25000064103659858
10
-8.75
20
-6.4103659799353308e-07
10
-8.5
20
-6.4103659799436381e-07
10
-8.5
20
-0.25000064103659858
10
-8.25
20
-0.25000064103659858
10
-8.25
20
-6.4103659799353308e-07
10
-7.9999999999999991
20
-6.4103659799436381e-07
10
-7.9999999999999991
20
-0.25000064103659858
10
-7.75
20
-0.25000064103659858
10
-7.75
20
-6.4103659799353308e-07
10
-7.5
20
-6.4103659799436381e-07
10
-7.5
20
-0.25000064103659858
10
-7.2500000000000009
20
-0.25000064103659858
10
-7.2500000000000009
20
-6.4103659799353308e-07
10
-7
20
-6.4103659799436381e-07
10
-7
20
-0.25000064103659858
10
-6.7500000000000009
20
-0.25000064103659858
10
-6.7500000000000009
20
-6.4103659799353308e-07
10
-6.5
20
-6.4103659799436381e-07
10
-6.5
20
-0.25000064103659858
10
-6.2499999999999991
20
-0.25000064103659858
10
-6.2499999999999991
20
-6.4103659799353308e-07
10
-6
20
-6.4103659799436381e-07
10
-6
20
-0.25000064103659858
10
-5.75
20
-0.25000064103659858
10
-5.75
20
-6.4103659799353308e-07
10
-5.4999999999999991
20
-6.4103659799436381e-07
10
-5.4999999999999991
20
-0.25000064103659858
10
-5.2499999999999991
20
-0.25000064103659858
10
-5.25
20
-6.4103659799353308e-07
10
-5.0000000000000009
20
-6.4103659799436381e-07
10
-4.9999999999999991
20
-0.25000064103659858
10
-4.7499999999999991
20
-0.25000064103659858
10
-4.7499999999999991
20
-6.4103659799353308e-07
10
-4.4999999999999991
20
-6.4103659799436381e-07
10
-4.4999999999999991
20
-0.25000064103659858
10
-4.25
20
-0.25000064103659858
10
-4.25
20
-6.4103659799353308e-07
10
-3.9999999999999982
20
-6.4103659799436381e-07
10
-3.9999999999999996
20
-0.25000064103659858
10
-3.75
20
-0.25000064103659858
10
-3.75
20
-6.4103659799353308e-07
10
-3.5
20
-6.4103659799436381e-07
10
-3.5
20
-0.25000064103659858
10
-3.25
20
-0.25000064103659858
10
-3.2500000000000009
20
-6.4103659799353308e-07
10
-2.9999999999999987
20
-6.4103659799436381e-07
10
-2.9999999999999996
20
-0.25000064103659858
10
-2.7499999999999996
20
-0.25000064103659858
10
-2.7499999999999996
20
-6.4103659799353308e-07
10
-2.5000000000000004
20
-6.4103659799436381e-07
10
-2.4999999999999996
20
-0.25000064103659858
10
-2.2499999999999996
20
-0.25000064103659858
10
-2.2500000000000013
20
-6.4103659799353308e-07
10
-1.9999999999999991
20
-6.4103659799436381e-07
10
-1.9999999999999998
20
-0.25000064103659858
10
-1.75
20
-0.25000064103659858
10
-1.75
20
-6.4103659799353308e-07
10
-1.5000000000000007
20
-6.4103659799436381e-07
10
-1.5
20
-0.25000064103659858
10
-1.25
20
-0.25000064103659858
10
-1.2499999999999987
20
-6.4103659799353308e-07
10
-0.99999999999999956
20
-6.4103659799436381e-07
10
-0.99999999999999989
20
-0.25000064103659858
10
-0.75
20
-0.25000064103659858
10
-0.75000000000000033
20
-6.4103659799353308e-07
10
-0.50000000000000122
20
-6.4103659799436381e-07
10
-0.49999999999999994
20
-0.25000064103659858
10
-0.25
20
-0.25000064103659858
10
-0.2499999999999992
20
-6.4103659799353308e-07
10
0
20
-6.4103659773210642e-07
10
-1.7483827159451283e-16
20
-11.750000641036596
10
-0.25000000000000017
20
-11.750000641036596
10
-0.2499999999999992
20
-12.000000641036596
10
-0.49999999999999944
20
-12.000000641036596
10
-0.49999999999999944
20
-11.750000641036596
10
-0.74999999999999922
20
-11.750000641036596
10
-0.74999999999999911
20
-12.000000641036596
10
-0.99999999999999889
20
-12.000000641036596
10
-0.999999999999999
20
-11.750000641036596
10
-1.2499999999999989
20
-11.750000641036596
10
-1.2499999999999989
20
-12.000000641036596
10
-1.4999999999999989
20
-12.000000641036596
10
-1.4999999999999991
20
-11.750000641036596
10
-1.7499999999999989
20
-11.750000641036596
10
-1.7499999999999989
20
-12.000000641036596
10
-1.9999999999999989
20
-12.000000641036596
10
-1.9999999999999989
20
-11.750000641036596
10
-2.2499999999999987
20
-11.750000641036596
10
-2.2499999999999987
20
-12.000000641036596
10
-2.4999999999999987
20
-12.000000641036596
10
-2.4999999999999987
20
-11.750000641036596
10
-2.7499999999999987
20
-11.750000641036596
10
-2.7499999999999987
20
-12.000000641036596
10
-2.9999999999999982
20
-12.000000641036596
10
-2.9999999999999987
20
-11.750000641036596
10
-3.2499999999999996
20
-11.750000641036596
10
-3.2499999999999996
20
-12.000000641036596
10
-3.4999999999999991
20
-12.000000641036596
10
-3.4999999999999991
20
-11.750000641036596
10
-3.7499999999999991
20
-11.750000641036596
10
-3.7499999999999991
20
-12.000000641036596
10
-3.9999999999999991
20
-12.000000641036596
10
-3.9999999999999991
20
-11.750000641036596
10
-4.2499999999999991
20
-11.750000641036596
10
-4.2499999999999991
20
-12.000000641036596
10
-4.4999999999999991
20
-12.000000641036596
10
-4.4999999999999991
20
-11.750000641036596
10
-4.7499999999999991
20
-11.750000641036596
10
-4.7499999999999991
20
-12.000000641036596
10
-4.9999999999999982
20
-12.000000641036596
10
-4.9999999999999982
20
-11.750000641036596
10
-5.2499999999999982
20
-11.750000641036596
10
-5.2499999999999982
20
-12.000000641036596
10
-5.4999999999999982
20
-12.000000641036596
10
-5.5
20
-11.750000393700788
10
-5.75
20
-11.750000393700788
10
-5.75
20
-12.000000641036596
10
-6
20
-12.000000393700788
10
-5.9999999999999991
20
-11.750000641036596
10
-6.2499999999999991
20
-11.750000641036596
10
-6.2499999999999991
20
-12.000000641036596
10
-6.4999999999999991
20
-12.000000641036596
10
-6.4999999999999991
20
-11.750000641036596
10
-6.7499999999999991
20
-11.750000641036598
10
-6.7499999999999991
20
-12.000000641036598
10
-6.9999999999999982
20
-12.000000641036598
10
-6.9999999999999982
20
-11.750000641036598
10
-7.2499999999999991
20
-11.750000641036598
10
-7.2499999999999991
20
-12.000000641036598
10
-7.4999999999999982
20
-12.000000641036598
10
-7.4999999999999982
20
-11.750000641036598
10
-7.7499999999999991
20
-11.750000641036598
10
-7.7499999999999991
20
-12.000000641036598
10
-7.9999999999999982
20
-12.000000641036598
10
-7.9999999999999982
20
-11.750000641036598
10
-8.2499999999999982
20
-11.750000641036598
10
-8.2499999999999982
20
-12.000000641036598
10
-8.4999999999999982
20
-12.000000641036598
10
-8.4999999999999982
20
-11.750000641036598
10
-8.7499999999999982
20
-11.750000641036598
10
-8.7499999999999982
20
-12.000000641036598
10
-8.9999999999999982
20
-12.000000641036598
10
-8.9999999999999982
20
-11.750000641036598
10
-9.2499999999999982
20
-11.750000641036598
10
-9.2499999999999982
20
-12.000000641036598
10
-9.4999999999999982
20
-12.000000641036598
10
-9.4999999999999982
20
-11.750000641036598
10
-9.7499999999999982
20
-11.750000641036598
10
-9.7499999999999982
20
-12.000000641036598
10
-9.9999999999999964
20
-12.000000641036598
10
-9.9999999999999964
20
-11.750000641036598
10
-10.249999999999998
20
-11.750000641036598
10
-10.249999999999998
20
-12.000000641036598
10
-10.499999999999996
20
-12.000000641036598
10
-10.499999999999998
20
-11.750000641036598
10
-10.749999999999998
20
-11.750000641036598
10
-10.749999999999998
20
-12.000000641036598
10
-10.999999999999998
20
-12.000000641036598
10
-10.999999999999998
20
-11.750000641036598
10
-11.249999999999998
20
-11.750000641036598
10
-11.249999999999998
20
-12.000000641036598
10
-11.499999999999998
20
-12.000000641036598
10
-11.499999999999998
20
-11.750000641036598
10
-11.749999999999998
20
-11.750000641036598
10
-11.749999999999998
20
-12.000000641036598
10
-11.999999999999998
20
-12.000000641036598
10
-11.999999999999998
20
-11.750000641036598
10
-12.249999999999998
20
-11.750000641036598
10
-12.249999999999998
20
-12.000000641036598
10
-12.499999999999998
20
-12.000000641036598
10
-12.499999999999998
20
-11.750000641036598
10
-12.749999999999998
20
-11.750000641036598
10
-12.749999999999998
20
-12.000000641036598
10
-13
20
-12.000000641036598
10
-13
20
-11.750000641036598
10
-13.25
20
-11.750000641036598
10
-13.25
20
-12.000000641036598
10
-13.500000000000002
20
-12.000000641036598
10
-13.499999999999998
20
-11.750000641036598
10
-13.749999999999998
20
-11.750000641036598
10
-13.749999999999998
20
-12.000000641036598
10
-14
20
-12.000000641036598
10
-14
20
-11.750000641036598
10
-14.249999999999998
20
-11.750000641036598
10
-14.249999999999998
20
-12.000000641036598
10
-14.500000000000002
20
-12.000000641036598
10
-14.499999999999998
20
-11.750000641036598
10
-14.749999999999996
20
-11.750000641036598
10
-14.749999999999996
20
-12.000000641036598
10
-15
20
-12.000000641036598
10
-15
20
-11.750000641036598
10
-15.249999999999998
20
-11.750000641036598
10
-15.249999999999998
20
-12.000000641036598
10
-15.5
20
-12.000000641036598
10
-15.499999999999998
20
-11.750000641036598
10
-15.749999999999996
20
-11.750000641036598
10
-15.749999999999996
20
-12.000000641036598
10
-15.999999999999998
20
-12.000000641036598
10
-15.999999999999998
20
-11.750000641036598
10
-16.249999999999996
20
-11.750000641036598
10
-16.249999999999996
20
-12.000000641036598
10
-16.5
20
-12.000000641036598
10
-16.5
20
-11.750000641036598
10
-16.75
20
-11.750000641036598
10
-16.75
20
-12.000000641036598
10
-17
20
-12.000000641036598
10
-17
20
-11.750000641036598
10
-17.249999999999996
20
-11.750000641036598
10
-17.249999999999996
20
-12.000000641036598
10
-17.5
20
-12.000000641036598
10
-17.5
20
-11.750000641036598
10
-17.75
20
-11.750000641036598
10
-17.75
20
-12.000000641036598
10
-18
20
-12.000000641036598
10
-18
20
-0.25000064103659858
10
-17.75
20
-0.25000064103659858
10
-17.75
20
-6.4103659799353308e-07
10
-17.5
20
-6.4103659799436381e-07
10
-17.5
20
-0.25000064103659858
10
-17.249999999999996
20
-0.25000064103659858
10
-17.249999999999996
20
-6.4103659799353308e-07
10
-17
20
-6.4103659799436381e-07
10
-17
20
-0.25000064103659858
10
-16.75
20
-0.25000064103659858
10
-16.75
20
-6.4103659799353308e-07
10
-16.5
20
-6.4103659799436381e-07
10
-16.5
20
-0.25000064103659858
10
-16.249999999999996
20
-0.25000064103659858
10
-16.249999999999996
20
-6.4103659799353308e-07
10
-15.999999999999998
20
-6.4103659799436381e-07
10
-15.999999999999998
20
-0.25000064103659858
10
-15.749999999999996
20
-0.25000064103659858
10
-15.749999999999996
20
-6.4103659799353308e-07
10
-15.5
20
-6.4103659799436381e-07
10
-15.5
20
-0.25000064103659858
10
-15.249999999999998
20
-0.25000064103659858
10
-15.249999999999998
20
-6.4103659799353308e-07
10
-15
20
-6.4103659799436381e-07
10
-15
20
-0.25000064103659858
10
-14.749999999999996
20
-0.25000064103659858
10
-14.749999999999996
20
-6.4103659799353308e-07
10
-14.500000000000002
20
-6.4103659799436381e-07
10
-14.500000000000002
20
-0.25000064103659858
10
-14.249999999999998
20
-0.25000064103659858
10
-14.249999999999998
20
-6.4103659799353308e-07
10
-14
20
-6.4103659799436381e-07
10
-14
20
-0.25000064103659858
10
-13.749999999999998
20
-0.25000064103659858
10
-13.749999999999998
20
-6.4103659799353308e-07
10
-13.500000000000002
20
-6.4103659799436381e-07
10
-13.500000000000002
20
-0.25000064103659858
10
-13.25
20
-0.25000064103659858
0
LWPOLYLINE
5
117
100
AcDbEntity
8
0
100
AcDbPolyline
90
8
70
1
43
0.0
10
-17.718750000003219
20
-6.5625006410498736
10
-17.656250000003219
20
-6.5625006410498736
42
0.41421356237309509
10
-17.625000000003219
20
-6.5312506410498754
10
-17.625000000003219
20
-5.4687506410498727
42
0.41421356237309509
10
-17.656250000003219
20
-5.4375006410498719
10
-17.718750000003219
20
-5.4375006410498727
42
0.41421356237308843
10
-17.750000000003219
20
-5.4687506410498727
10
-17.750000000003219
20
-6.5312506410498736
42
0.41421356237309509
0
LWPOLYLINE
5
118
100
AcDbEntity
8
0
100
AcDbPolyline
90
8
70
1
43
0.0
10
-17.218750000003219
20
-6.5625006410498736
10
-17.156250000003215
20
-6.5625006410498736
42
0.41421356237309509
10
-17.125000000003215
20
-6.5312506410498754
10
-17.125000000003215
20
-5.4687506410498727
42
0.41421356237309509
10
-17.156250000003215
20
-5.4375006410498719
10
-17.218750000003222
20
-5.4375006410498727
42
0.41421356237308843
10
-17.250000000003219
20
-5.4687506410498727
10
-17.250000000003219
20
-6.5312506410498736
42
0.41421356237309509
0
LWPOLYLINE
5
119
100
AcDbEntity
8
0
100
AcDbPolyline
90
8
70
1
43
0.0
10
-0.28124999999462563
20
-5.4375006410551725
10
-0.34374999999463451
20
-5.4375006410508426
42
0.41421356239323032
10
-0.37499999999679995
20
-5.4687506410508258
10
-0.37499999999734196
20
-6.5312506410493203
42
0.41421356232862355
10
-0.34375000000210221
20
-6.5625006410493363
10
-0.28125000000203315
20
-6.5625006410588558
42
0.41421356241756613
10
-0.24999999999727376
20
-6.5312506410588718
10
-0.24999999999679018
20
-5.4687506410551867
42
0.41421356235293877
0
LWPOLYLINE
5
120
100
AcDbEntity
8
0
100
AcDbPolyline
90
8
70
1
43
0.0
10
-0.8437499999996948
20
-6.5625006410497351
10
-0.78124999999943556
20
-6.5625006410540587
42
0.41421356239322304
10
-0.74999999999727451
20
-6.5312506410540712
10
-0.74999999999679545
20
-5.4687506410567632
42
0.41421356234800427
10
-0.78124999999410438
20
-5.4375006410567499
10
-0.84374999999411537
20
-5.4375006410513684
42
0.41421356239810464
10
-0.87499999999680655
20
-5.4687506410513462
10
-0.87499999999753342
20
-6.5312506410497146
42
0.41421356235303264
0
LWPOLYLINE
5
121
100
AcDbEntity
8
0
100
AcDbPolyline
90
24
70
1
43
0.0
10
-16.1875
20
-7.0000006410365945
42
-0.41421356237309825
10
-16.4375
20
-7.2500006410365954
10
-17
20
-7.2500006410365971
42
0.41421356237309509
10
-17.25
20
-7.5000006410365971
10
-17.25
20
-10.5000006410366
42
0.41421356237309509
10
-16.75
20
-11.0000006410366
10
-1.2500000000000004
20
-11.0000006410366
42
0.41421356237309537
10
-0.75000000000000033
20
-10.5000006410366
10
-0.75
20
-7.7500006410365998
42
0.41421356237309465
10
-0.99999999999999956
20
-7.5000006410365989
10
-1.5000000000000007
20
-7.5000006410365989
42
-0.41421356237308932
10
-1.7500000000000002
20
-7.2500006410365998
10
-1.7499999999999993
20
-4.7500006410365989
42
-0.41421356237309587
10
-1.4999999999999993
20
-4.5000006410365989
10
-0.99999999999999956
20
-4.5000006410365989
42
0.41421356237309465
10
-0.75000000000000033
20
-4.2500006410365989
10
-0.74999999999999889
20
-1.500000641036598
42
0.41421356237309509
10
-1.2499999999999987
20
-1.000000641036598
10
-16.75
20
-1.000000641036598
42
0.41421356237309509
10
-17.25
20
-1.5000006410365978
10
-17.25
20
-4.500000641036598
42
0.41421356237309509
10
-17
20
-4.750000641036598
10
-16.437500000000004
20
-4.7500006410365998
42
-0.41421356237309914
10
-16.187500000000004
20
-5.0000006410365971
0
LWPOLYLINE
5
122
100
AcDbEntity
8
0
100
AcDbPolyline
90
12
70
1
43
0.0
10
-1.3749999999966174
20
-5.8541673077165397
42
-0.99999999999999989
10
-1.3749999999969418
20
-5.7916673077165388
10
-1.3749999999967772
20
-5.5000006410498727
42
-0.99999999999999989
10
-1.3749999999967832
20
-5.4375006410498719
10
-1.2812499999968086
20
-5.437500641049807
42
-0.41421356237333434
10
-1.2499999999967866
20
-5.4687506410498106
10
-1.2499999999968985
20
-6.5312506410573441
42
-0.41421356240356805
10
-1.2812500000001537
20
-6.5625006410573397
10
-1.3749999999963025
20
-6.5625006410498719
42
-0.99999999999999989
10
-1.3749999999972589
20
-6.5000006410498727
10
-1.3749999999964591
20
-6.2083339743832058
42
-0.99999999999999989
10
-1.3749999999971003
20
-6.1458339743832049
0
LWPOLYLINE
5
123
100
AcDbEntity
8
0
100
AcDbPolyline
90
12
70
1
43
0.0
10
-16.625000000003219
20
-5.4375006410498727
42
-0.99999999999999989
10
-16.625000000003219
20
-5.5000006410498719
10
-16.625000000003219
20
-5.7916673077165397
42
-0.99999999999999989
10
-16.625000000003219
20
-5.8541673077165388
10
-16.625000000003219
20
-6.1458339743832058
42
-0.99999999999999989
10
-16.625000000003219
20
-6.2083339743832049
10
-16.625000000003219
20
-6.5000006410498727
42
-0.99999999999999989
10
-16.625000000003219
20
-6.5625006410498719
10
-16.718750000003215
20
-6.5625006410498736
42
-0.41421356237309509
10
-16.750000000003215
20
-6.5312506410498736
10
-16.750000000003219
20
-5.4687506410498727
42
-0.41421356237308843
10
-16.718750000003219
20
-5.4375006410498727
0
ENDSEC
0
SECTION
2
OBJECTS
0
DICTIONARY
5
C
100
AcDbDictionary
3
ACAD_GROUP
350
D
3
ACAD_MLINESTYLE
350
17
0
DICTIONARY
5
D
100
AcDbDictionary
0
DICTIONARY
5
1A
330
C
100
AcDbDictionary
0
DICTIONARY
5
17
100
AcDbDictionary
0
ENDSEC
0
EOF
