0
SECTION
2
HEADER
9
$INSUNITS
70
1
9
$ACADVER
1
AC1014
9
$HANDSEED
5
FFFF
0
ENDSEC
0
SECTION
2
TABLES
0
TABLE
2
VPORT
5
8
100
AcDbSymbolTable
0
ENDTAB
0
TABLE
2
LTYPE
5
5
100
AcDbSymbolTable
0
LTYPE
5
14
100
AcDbSymbolTableRecord
100
AcDbLinetypeTableRecord
2
BYBLOCK
70
0
0
LTYPE
5
15
100
AcDbSymbolTableRecord
100
AcDbLinetypeTableRecord
2
BYLAYER
70
0
0
ENDTAB
0
TABLE
2
LAYER
5
2
100
AcDbSymbolTable
70
2
0
LAYER
5
50
100
AcDbSymbolTableRecord
100
AcDbLayerTableRecord
2
0
70
0
6
CONTINUOUS
0
ENDTAB
0
TABLE
2
STYLE
5
3
100
AcDbSymbolTable
70
1
0
STYLE
5
11
100
AcDbSymbolTableRecord
100
AcDbTextStyleTableRecord
2
STANDARD
70
0
0
ENDTAB
0
TABLE
2
VIEW
5
6
100
AcDbSymbolTable
70
0
0
ENDTAB
0
TABLE
2
UCS
5
7
100
AcDbSymbolTable
70
0
0
ENDTAB
0
TABLE
2
APPID
5
9
100
AcDbSymbolTable
70
2
0
APPID
5
12
100
AcDbSymbolTableRecord
100
AcDbRegAppTableRecord
2
ACAD
70
0
0
ENDTAB
0
TABLE
2
DIMSTYLE
5
A
100
AcDbSymbolTable
70
1
0
ENDTAB
0
TABLE
2
BLOCK_RECORD
5
1
100
AcDbSymbolTable
70
1
0
BLOCK_RECORD
5
1F
100
AcDbSymbolTableRecord
100
AcDbBlockTableRecord
2
*MODEL_SPACE
0
BLOCK_RECORD
5
1B
100
AcDbSymbolTableRecord
100
AcDbBlockTableRecord
2
*PAPER_SPACE
0
ENDTAB
0
ENDSEC
0
SECTION
2
BLOCKS
0
BLOCK
5
20
100
AcDbEntity
100
AcDbBlockBegin
2
*MODEL_SPACE
0
ENDBLK
5
21
100
AcDbEntity
100
AcDbBlockEnd
0
BLOCK
5
1C
100
AcDbEntity
100
AcDbBlockBegin
2
*PAPER_SPACE
0
ENDBLK
5
1D
100
AcDbEntity
100
AcDbBlockEnd
0
ENDSEC
0
SECTION
2
ENTITIES
0
LINE
5
100
100
AcDbEntity
8
0
100
AcDbLine
10
3
20
-5.4999999999999982
30
0
11
3
21
-5.75
31
0
0
LINE
5
101
100
AcDbEntity
8
0
100
AcDbLine
10
2.9999997526641917
20
-5.75
30
0
11
3.2499997526641922
21
-5.75
31
0
0
LINE
5
102
100
AcDbEntity
8
0
100
AcDbLine
10
3.2499997526641922
20
-5.75
30
0
11
3.2499997526641922
21
-6
31
0
0
LINE
5
103
100
AcDbEntity
8
0
100
AcDbLine
10
3.2499997526641922
20
-6
30
0
11
2.9999997526641917
21
-6
31
0
0
LINE
5
104
100
AcDbEntity
8
0
100
AcDbLine
10
3
20
-6
30
0
11
3
21
-6.2499999999999991
31
0
0
LINE
5
105
100
AcDbEntity
8
0
100
AcDbLine
10
3
20
-6.2499999999999991
30
0
11
3.2500000000000009
21
-6.2499999999999991
31
0
0
LINE
5
106
100
AcDbEntity
8
0
100
AcDbLine
10
3.2500000000000009
20
-6.2499999999999991
30
0
11
3.2500000000000009
21
-6.4999999999999991
31
0
0
LINE
5
107
100
AcDbEntity
8
0
100
AcDbLine
10
3.2500000000000009
20
-6.4999999999999991
30
0
11
3
21
-6.4999999999999991
31
0
0
LINE
5
108
100
AcDbEntity
8
0
100
AcDbLine
10
3
20
-6.4999999999999991
30
0
11
3.0000000000000013
21
-6.7499999999999991
31
0
0
LINE
5
109
100
AcDbEntity
8
0
100
AcDbLine
10
3.0000000000000013
20
-6.7499999999999991
30
0
11
3.2500000000000022
21
-6.7499999999999991
31
0
0
LINE
5
110
100
AcDbEntity
8
0
100
AcDbLine
10
3.2500000000000022
20
-6.7499999999999991
30
0
11
3.2500000000000022
21
-6.9999999999999982
31
0
0
LINE
5
111
100
AcDbEntity
8
0
100
AcDbLine
10
3.2500000000000022
20
-6.9999999999999982
30
0
11
3.0000000000000013
21
-6.9999999999999982
31
0
0
LINE
5
112
100
AcDbEntity
8
0
100
AcDbLine
10
3.0000000000000013
20
-6.9999999999999982
30
0
11
3.0000000000000013
21
-7.2499999999999991
31
0
0
LINE
5
113
100
AcDbEntity
8
0
100
AcDbLine
10
3.0000000000000013
20
-7.2499999999999991
30
0
11
3.2500000000000022
21
-7.2499999999999991
31
0
0
LINE
5
114
100
AcDbEntity
8
0
100
AcDbLine
10
3.2500000000000022
20
-7.2499999999999991
30
0
11
3.2500000000000022
21
-7.4999999999999982
31
0
0
LINE
5
115
100
AcDbEntity
8
0
100
AcDbLine
10
3.2500000000000022
20
-7.4999999999999982
30
0
11
3.0000000000000013
21
-7.4999999999999982
31
0
0
LINE
5
116
100
AcDbEntity
8
0
100
AcDbLine
10
3.0000000000000013
20
-7.4999999999999982
30
0
11
3.0000000000000013
21
-7.7499999999999991
31
0
0
LINE
5
117
100
AcDbEntity
8
0
100
AcDbLine
10
3.0000000000000013
20
-7.7499999999999991
30
0
11
3.2500000000000022
21
-7.7499999999999991
31
0
0
LINE
5
118
100
AcDbEntity
8
0
100
AcDbLine
10
3.2500000000000022
20
-7.7499999999999991
30
0
11
3.2500000000000022
21
-7.9999999999999982
31
0
0
LINE
5
119
100
AcDbEntity
8
0
100
AcDbLine
10
3.2500000000000022
20
-7.9999999999999982
30
0
11
3.0000000000000013
21
-7.9999999999999982
31
0
0
LINE
5
120
100
AcDbEntity
8
0
100
AcDbLine
10
3.0000000000000013
20
-7.9999999999999982
30
0
11
3.0000000000000013
21
-8.2499999999999982
31
0
0
LINE
5
121
100
AcDbEntity
8
0
100
AcDbLine
10
3.0000000000000013
20
-8.2499999999999982
30
0
11
3.2500000000000022
21
-8.2499999999999982
31
0
0
LINE
5
122
100
AcDbEntity
8
0
100
AcDbLine
10
3.2500000000000022
20
-8.2499999999999982
30
0
11
3.2500000000000022
21
-8.4999999999999982
31
0
0
LINE
5
123
100
AcDbEntity
8
0
100
AcDbLine
10
3.2500000000000022
20
-8.4999999999999982
30
0
11
3.0000000000000013
21
-8.4999999999999982
31
0
0
LINE
5
124
100
AcDbEntity
8
0
100
AcDbLine
10
3.0000000000000013
20
-8.4999999999999982
30
0
11
3.0000000000000013
21
-8.7499999999999982
31
0
0
LINE
5
125
100
AcDbEntity
8
0
100
AcDbLine
10
3.0000000000000013
20
-8.7499999999999982
30
0
11
3.2500000000000022
21
-8.7499999999999982
31
0
0
LINE
5
126
100
AcDbEntity
8
0
100
AcDbLine
10
3.2500000000000022
20
-8.7499999999999982
30
0
11
3.2500000000000022
21
-8.9999999999999982
31
0
0
LINE
5
127
100
AcDbEntity
8
0
100
AcDbLine
10
3.2500000000000022
20
-8.9999999999999982
30
0
11
3.0000000000000013
21
-8.9999999999999982
31
0
0
LINE
5
128
100
AcDbEntity
8
0
100
AcDbLine
10
3.0000000000000013
20
-8.9999999999999982
30
0
11
3.0000000000000013
21
-9.2499999999999982
31
0
0
LINE
5
129
100
AcDbEntity
8
0
100
AcDbLine
10
3.0000000000000013
20
-9.2499999999999982
30
0
11
3.2500000000000022
21
-9.2499999999999982
31
0
0
LINE
5
130
100
AcDbEntity
8
0
100
AcDbLine
10
3.2500000000000022
20
-9.2499999999999982
30
0
11
3.2500000000000022
21
-9.4999999999999982
31
0
0
LINE
5
131
100
AcDbEntity
8
0
100
AcDbLine
10
3.2500000000000022
20
-9.4999999999999982
30
0
11
3.0000000000000013
21
-9.4999999999999982
31
0
0
LINE
5
132
100
AcDbEntity
8
0
100
AcDbLine
10
3.0000000000000013
20
-9.4999999999999982
30
0
11
3.0000000000000013
21
-9.7499999999999982
31
0
0
LINE
5
133
100
AcDbEntity
8
0
100
AcDbLine
10
3.0000000000000013
20
-9.7499999999999982
30
0
11
3.2500000000000022
21
-9.7499999999999982
31
0
0
LINE
5
134
100
AcDbEntity
8
0
100
AcDbLine
10
3.2500000000000022
20
-9.7499999999999982
30
0
11
3.2500000000000022
21
-9.9999999999999964
31
0
0
LINE
5
135
100
AcDbEntity
8
0
100
AcDbLine
10
3.2500000000000022
20
-9.9999999999999964
30
0
11
3.0000000000000013
21
-9.9999999999999964
31
0
0
LINE
5
136
100
AcDbEntity
8
0
100
AcDbLine
10
3.0000000000000013
20
-9.9999999999999964
30
0
11
3.0000000000000013
21
-10.249999999999998
31
0
0
LINE
5
137
100
AcDbEntity
8
0
100
AcDbLine
10
3.0000000000000013
20
-10.249999999999998
30
0
11
3.2500000000000022
21
-10.249999999999998
31
0
0
LINE
5
138
100
AcDbEntity
8
0
100
AcDbLine
10
3.2500000000000022
20
-10.249999999999998
30
0
11
3.2500000000000022
21
-10.499999999999996
31
0
0
LINE
5
139
100
AcDbEntity
8
0
100
AcDbLine
10
3.2500000000000022
20
-10.499999999999996
30
0
11
3.0000000000000013
21
-10.499999999999996
31
0
0
LINE
5
140
100
AcDbEntity
8
0
100
AcDbLine
10
3.0000000000000013
20
-10.499999999999996
30
0
11
3.0000000000000013
21
-10.749999999999998
31
0
0
LINE
5
141
100
AcDbEntity
8
0
100
AcDbLine
10
3.0000000000000013
20
-10.749999999999998
30
0
11
3.2500000000000022
21
-10.749999999999998
31
0
0
LINE
5
142
100
AcDbEntity
8
0
100
AcDbLine
10
3.2500000000000022
20
-10.749999999999998
30
0
11
3.2500000000000022
21
-10.999999999999998
31
0
0
LINE
5
143
100
AcDbEntity
8
0
100
AcDbLine
10
3.2500000000000022
20
-10.999999999999998
30
0
11
3.0000000000000013
21
-10.999999999999998
31
0
0
LINE
5
144
100
AcDbEntity
8
0
100
AcDbLine
10
3.0000000000000013
20
-10.999999999999998
30
0
11
3.0000000000000013
21
-11.249999999999998
31
0
0
LINE
5
145
100
AcDbEntity
8
0
100
AcDbLine
10
3.0000000000000013
20
-11.249999999999998
30
0
11
3.2500000000000022
21
-11.249999999999998
31
0
0
LINE
5
146
100
AcDbEntity
8
0
100
AcDbLine
10
3.2500000000000022
20
-11.249999999999998
30
0
11
3.2500000000000022
21
-11.499999999999998
31
0
0
LINE
5
147
100
AcDbEntity
8
0
100
AcDbLine
10
3.2500000000000022
20
-11.499999999999998
30
0
11
3.0000000000000013
21
-11.499999999999998
31
0
0
LINE
5
148
100
AcDbEntity
8
0
100
AcDbLine
10
3.0000000000000013
20
-11.499999999999998
30
0
11
3.0000000000000013
21
-11.749999999999998
31
0
0
LINE
5
149
100
AcDbEntity
8
0
100
AcDbLine
10
3.0000000000000013
20
-11.749999999999998
30
0
11
3.2500000000000022
21
-11.749999999999998
31
0
0
LINE
5
150
100
AcDbEntity
8
0
100
AcDbLine
10
3.2500000000000022
20
-11.749999999999998
30
0
11
3.2500000000000022
21
-11.999999999999998
31
0
0
LINE
5
151
100
AcDbEntity
8
0
100
AcDbLine
10
3.2500000000000022
20
-11.999999999999998
30
0
11
3.0000000000000013
21
-11.999999999999998
31
0
0
LINE
5
152
100
AcDbEntity
8
0
100
AcDbLine
10
3.0000000000000013
20
-11.999999999999998
30
0
11
3.0000000000000013
21
-12.249999999999998
31
0
0
LINE
5
153
100
AcDbEntity
8
0
100
AcDbLine
10
3.0000000000000013
20
-12.249999999999998
30
0
11
3.2500000000000022
21
-12.249999999999998
31
0
0
LINE
5
154
100
AcDbEntity
8
0
100
AcDbLine
10
3.2500000000000022
20
-12.249999999999998
30
0
11
3.2500000000000022
21
-12.499999999999998
31
0
0
LINE
5
155
100
AcDbEntity
8
0
100
AcDbLine
10
3.2500000000000022
20
-12.499999999999998
30
0
11
3.0000000000000013
21
-12.499999999999998
31
0
0
LINE
5
156
100
AcDbEntity
8
0
100
AcDbLine
10
3.0000000000000013
20
-12.499999999999998
30
0
11
3.0000000000000013
21
-12.749999999999998
31
0
0
LINE
5
157
100
AcDbEntity
8
0
100
AcDbLine
10
3.0000000000000013
20
-12.749999999999998
30
0
11
3.2500000000000022
21
-12.749999999999998
31
0
0
LINE
5
158
100
AcDbEntity
8
0
100
AcDbLine
10
3.2500000000000022
20
-12.749999999999998
30
0
11
3.2500000000000022
21
-13
31
0
0
LINE
5
159
100
AcDbEntity
8
0
100
AcDbLine
10
3.2500000000000022
20
-13
30
0
11
3.0000000000000013
21
-13
31
0
0
LINE
5
160
100
AcDbEntity
8
0
100
AcDbLine
10
3.0000000000000013
20
-13
30
0
11
3.0000000000000013
21
-13.25
31
0
0
LINE
5
161
100
AcDbEntity
8
0
100
AcDbLine
10
3.0000000000000013
20
-13.25
30
0
11
3.2500000000000022
21
-13.25
31
0
0
LINE
5
162
100
AcDbEntity
8
0
100
AcDbLine
10
3.2500000000000022
20
-13.25
30
0
11
3.2500000000000022
21
-13.500000000000002
31
0
0
LINE
5
163
100
AcDbEntity
8
0
100
AcDbLine
10
3.2500000000000022
20
-13.500000000000002
30
0
11
3.0000000000000013
21
-13.500000000000002
31
0
0
LINE
5
164
100
AcDbEntity
8
0
100
AcDbLine
10
3.0000000000000013
20
-13.500000000000002
30
0
11
3.0000000000000013
21
-13.749999999999998
31
0
0
LINE
5
165
100
AcDbEntity
8
0
100
AcDbLine
10
3.0000000000000013
20
-13.749999999999998
30
0
11
3.2500000000000022
21
-13.749999999999998
31
0
0
LINE
5
166
100
AcDbEntity
8
0
100
AcDbLine
10
3.2500000000000022
20
-13.749999999999998
30
0
11
3.2500000000000022
21
-14
31
0
0
LINE
5
167
100
AcDbEntity
8
0
100
AcDbLine
10
3.2500000000000022
20
-14
30
0
11
3.0000000000000013
21
-14
31
0
0
LINE
5
168
100
AcDbEntity
8
0
100
AcDbLine
10
3.0000000000000013
20
-14
30
0
11
3.0000000000000013
21
-14.249999999999998
31
0
0
LINE
5
169
100
AcDbEntity
8
0
100
AcDbLine
10
3.0000000000000013
20
-14.249999999999998
30
0
11
3.2500000000000022
21
-14.249999999999998
31
0
0
LINE
5
170
100
AcDbEntity
8
0
100
AcDbLine
10
3.2500000000000022
20
-14.249999999999998
30
0
11
3.2500000000000022
21
-14.500000000000002
31
0
0
LINE
5
171
100
AcDbEntity
8
0
100
AcDbLine
10
3.2500000000000022
20
-14.500000000000002
30
0
11
3.0000000000000013
21
-14.500000000000002
31
0
0
LINE
5
172
100
AcDbEntity
8
0
100
AcDbLine
10
3.0000000000000013
20
-14.500000000000002
30
0
11
3.0000000000000013
21
-14.749999999999996
31
0
0
LINE
5
173
100
AcDbEntity
8
0
100
AcDbLine
10
3.0000000000000013
20
-14.749999999999996
30
0
11
3.2500000000000022
21
-14.749999999999996
31
0
0
LINE
5
174
100
AcDbEntity
8
0
100
AcDbLine
10
3.2500000000000022
20
-14.749999999999996
30
0
11
3.2500000000000022
21
-15
31
0
0
LINE
5
175
100
AcDbEntity
8
0
100
AcDbLine
10
3.2500000000000022
20
-15
30
0
11
3.0000000000000013
21
-15
31
0
0
LINE
5
176
100
AcDbEntity
8
0
100
AcDbLine
10
3.0000000000000013
20
-15
30
0
11
3.0000000000000013
21
-15.249999999999998
31
0
0
LINE
5
177
100
AcDbEntity
8
0
100
AcDbLine
10
3.0000000000000013
20
-15.249999999999998
30
0
11
3.2500000000000022
21
-15.249999999999998
31
0
0
LINE
5
178
100
AcDbEntity
8
0
100
AcDbLine
10
3.2500000000000022
20
-15.249999999999998
30
0
11
3.2500000000000022
21
-15.5
31
0
0
LINE
5
179
100
AcDbEntity
8
0
100
AcDbLine
10
3.2500000000000022
20
-15.5
30
0
11
3.0000000000000013
21
-15.5
31
0
0
LINE
5
180
100
AcDbEntity
8
0
100
AcDbLine
10
3.0000000000000013
20
-15.5
30
0
11
3.0000000000000013
21
-15.749999999999996
31
0
0
LINE
5
181
100
AcDbEntity
8
0
100
AcDbLine
10
3.0000000000000013
20
-15.749999999999996
30
0
11
3.2500000000000022
21
-15.749999999999996
31
0
0
LINE
5
182
100
AcDbEntity
8
0
100
AcDbLine
10
3.2500000000000022
20
-15.749999999999996
30
0
11
3.2500000000000022
21
-15.999999999999998
31
0
0
LINE
5
183
100
AcDbEntity
8
0
100
AcDbLine
10
3.2500000000000022
20
-15.999999999999998
30
0
11
3.0000000000000013
21
-15.999999999999998
31
0
0
LINE
5
184
100
AcDbEntity
8
0
100
AcDbLine
10
3.0000000000000013
20
-15.999999999999998
30
0
11
3.0000000000000013
21
-16.249999999999996
31
0
0
LINE
5
185
100
AcDbEntity
8
0
100
AcDbLine
10
3.0000000000000013
20
-16.249999999999996
30
0
11
3.2500000000000022
21
-16.249999999999996
31
0
0
LINE
5
186
100
AcDbEntity
8
0
100
AcDbLine
10
3.2500000000000022
20
-16.249999999999996
30
0
11
3.2500000000000022
21
-16.5
31
0
0
LINE
5
187
100
AcDbEntity
8
0
100
AcDbLine
10
3.2500000000000022
20
-16.5
30
0
11
3.0000000000000013
21
-16.5
31
0
0
LINE
5
188
100
AcDbEntity
8
0
100
AcDbLine
10
3.0000000000000013
20
-16.5
30
0
11
3.0000000000000013
21
-16.75
31
0
0
LINE
5
189
100
AcDbEntity
8
0
100
AcDbLine
10
3.0000000000000013
20
-16.75
30
0
11
3.2500000000000022
21
-16.75
31
0
0
LINE
5
190
100
AcDbEntity
8
0
100
AcDbLine
10
3.2500000000000022
20
-16.75
30
0
11
3.2500000000000022
21
-17
31
0
0
LINE
5
191
100
AcDbEntity
8
0
100
AcDbLine
10
3.2500000000000022
20
-17
30
0
11
3.0000000000000013
21
-17
31
0
0
LINE
5
192
100
AcDbEntity
8
0
100
AcDbLine
10
3.0000000000000013
20
-17
30
0
11
3.0000000000000013
21
-17.249999999999996
31
0
0
LINE
5
193
100
AcDbEntity
8
0
100
AcDbLine
10
3.0000000000000013
20
-17.249999999999996
30
0
11
3.2500000000000022
21
-17.249999999999996
31
0
0
LINE
5
194
100
AcDbEntity
8
0
100
AcDbLine
10
3.2500000000000022
20
-17.249999999999996
30
0
11
3.2500000000000022
21
-17.5
31
0
0
LINE
5
195
100
AcDbEntity
8
0
100
AcDbLine
10
3.2500000000000022
20
-17.5
30
0
11
3.0000000000000013
21
-17.5
31
0
0
LINE
5
196
100
AcDbEntity
8
0
100
AcDbLine
10
3.0000000000000013
20
-17.5
30
0
11
3.0000000000000013
21
-17.75
31
0
0
LINE
5
197
100
AcDbEntity
8
0
100
AcDbLine
10
3.0000000000000013
20
-17.75
30
0
11
3.2500000000000022
21
-17.75
31
0
0
LINE
5
198
100
AcDbEntity
8
0
100
AcDbLine
10
3.2500000000000022
20
-17.75
30
0
11
3.2500000000000022
21
-18
31
0
0
LINE
5
199
100
AcDbEntity
8
0
100
AcDbLine
10
3.2500000000000022
20
-17.99999972966712
30
0
11
14.750000247335812
21
-17.99999972966712
31
0
0
LINE
5
200
100
AcDbEntity
8
0
100
AcDbLine
10
14.750000247335812
20
-18
30
0
11
15
21
-17.999999999999996
31
0
0
LINE
5
201
100
AcDbEntity
8
0
100
AcDbLine
10
15
20
-17.999999999999996
30
0
11
15
21
-17.75
31
0
0
LINE
5
202
100
AcDbEntity
8
0
100
AcDbLine
10
15
20
-17.75
30
0
11
14.750000000000004
21
-17.75
31
0
0
LINE
5
203
100
AcDbEntity
8
0
100
AcDbLine
10
14.750000000000004
20
-17.75
30
0
11
14.750000000000004
21
-17.5
31
0
0
LINE
5
204
100
AcDbEntity
8
0
100
AcDbLine
10
14.750000247335812
20
-17.5
30
0
11
15
21
-17.5
31
0
0
LINE
5
205
100
AcDbEntity
8
0
100
AcDbLine
10
15
20
-17.5
30
0
11
15
21
-17.249999999999996
31
0
0
LINE
5
206
100
AcDbEntity
8
0
100
AcDbLine
10
15
20
-17.249999999999996
30
0
11
14.750000000000004
21
-17.249999999999996
31
0
0
LINE
5
207
100
AcDbEntity
8
0
100
AcDbLine
10
14.750000000000004
20
-17.249999999999996
30
0
11
14.750000000000004
21
-17
31
0
0
LINE
5
208
100
AcDbEntity
8
0
100
AcDbLine
10
14.750000247335812
20
-17
30
0
11
15
21
-17
31
0
0
LINE
5
209
100
AcDbEntity
8
0
100
AcDbLine
10
15
20
-17
30
0
11
15
21
-16.75
31
0
0
LINE
5
210
100
AcDbEntity
8
0
100
AcDbLine
10
15
20
-16.75
30
0
11
14.750000000000004
21
-16.75
31
0
0
LINE
5
211
100
AcDbEntity
8
0
100
AcDbLine
10
14.750000000000004
20
-16.75
30
0
11
14.750000000000004
21
-16.5
31
0
0
LINE
5
212
100
AcDbEntity
8
0
100
AcDbLine
10
14.750000247335812
20
-16.5
30
0
11
15
21
-16.5
31
0
0
LINE
5
213
100
AcDbEntity
8
0
100
AcDbLine
10
15
20
-16.5
30
0
11
15
21
-16.249999999999996
31
0
0
LINE
5
214
100
AcDbEntity
8
0
100
AcDbLine
10
15
20
-16.249999999999996
30
0
11
14.750000000000004
21
-16.249999999999996
31
0
0
LINE
5
215
100
AcDbEntity
8
0
100
AcDbLine
10
14.750000000000004
20
-16.249999999999996
30
0
11
14.750000000000004
21
-15.999999999999998
31
0
0
LINE
5
216
100
AcDbEntity
8
0
100
AcDbLine
10
14.750000247335812
20
-15.999999999999998
30
0
11
15
21
-15.999999999999998
31
0
0
LINE
5
217
100
AcDbEntity
8
0
100
AcDbLine
10
15
20
-15.999999999999998
30
0
11
15
21
-15.749999999999996
31
0
0
LINE
5
218
100
AcDbEntity
8
0
100
AcDbLine
10
15
20
-15.749999999999996
30
0
11
14.750000000000004
21
-15.749999999999996
31
0
0
LINE
5
219
100
AcDbEntity
8
0
100
AcDbLine
10
14.750000000000004
20
-15.749999999999996
30
0
11
14.750000000000004
21
-15.499999999999998
31
0
0
LINE
5
220
100
AcDbEntity
8
0
100
AcDbLine
10
14.750000247335812
20
-15.5
30
0
11
15
21
-15.5
31
0
0
LINE
5
221
100
AcDbEntity
8
0
100
AcDbLine
10
15
20
-15.5
30
0
11
15
21
-15.249999999999998
31
0
0
LINE
5
222
100
AcDbEntity
8
0
100
AcDbLine
10
15
20
-15.249999999999998
30
0
11
14.750000000000004
21
-15.249999999999998
31
0
0
LINE
5
223
100
AcDbEntity
8
0
100
AcDbLine
10
14.750000000000004
20
-15.249999999999998
30
0
11
14.750000000000004
21
-15
31
0
0
LINE
5
224
100
AcDbEntity
8
0
100
AcDbLine
10
14.750000247335812
20
-15
30
0
11
15
21
-15
31
0
0
LINE
5
225
100
AcDbEntity
8
0
100
AcDbLine
10
15
20
-15
30
0
11
15
21
-14.749999999999996
31
0
0
LINE
5
226
100
AcDbEntity
8
0
100
AcDbLine
10
15
20
-14.749999999999996
30
0
11
14.750000000000004
21
-14.749999999999996
31
0
0
LINE
5
227
100
AcDbEntity
8
0
100
AcDbLine
10
14.750000000000004
20
-14.749999999999996
30
0
11
14.750000000000004
21
-14.499999999999998
31
0
0
LINE
5
228
100
AcDbEntity
8
0
100
AcDbLine
10
14.750000247335812
20
-14.500000000000002
30
0
11
15
21
-14.500000000000002
31
0
0
LINE
5
229
100
AcDbEntity
8
0
100
AcDbLine
10
15
20
-14.500000000000002
30
0
11
15
21
-14.249999999999998
31
0
0
LINE
5
230
100
AcDbEntity
8
0
100
AcDbLine
10
15
20
-14.249999999999998
30
0
11
14.750000000000004
21
-14.249999999999998
31
0
0
LINE
5
231
100
AcDbEntity
8
0
100
AcDbLine
10
14.750000000000004
20
-14.249999999999998
30
0
11
14.750000000000004
21
-14
31
0
0
LINE
5
232
100
AcDbEntity
8
0
100
AcDbLine
10
14.750000247335812
20
-14
30
0
11
15
21
-14
31
0
0
LINE
5
233
100
AcDbEntity
8
0
100
AcDbLine
10
15
20
-14
30
0
11
15
21
-13.749999999999998
31
0
0
LINE
5
234
100
AcDbEntity
8
0
100
AcDbLine
10
15
20
-13.749999999999998
30
0
11
14.750000000000004
21
-13.749999999999998
31
0
0
LINE
5
235
100
AcDbEntity
8
0
100
AcDbLine
10
14.750000000000004
20
-13.749999999999998
30
0
11
14.750000000000004
21
-13.499999999999998
31
0
0
LINE
5
236
100
AcDbEntity
8
0
100
AcDbLine
10
14.750000247335812
20
-13.500000000000002
30
0
11
15
21
-13.500000000000002
31
0
0
LINE
5
237
100
AcDbEntity
8
0
100
AcDbLine
10
15
20
-13.500000000000002
30
0
11
15
21
-13.25
31
0
0
LINE
5
238
100
AcDbEntity
8
0
100
AcDbLine
10
15
20
-13.25
30
0
11
14.750000000000004
21
-13.25
31
0
0
LINE
5
239
100
AcDbEntity
8
0
100
AcDbLine
10
14.750000000000004
20
-13.25
30
0
11
14.750000000000004
21
-13
31
0
0
LINE
5
240
100
AcDbEntity
8
0
100
AcDbLine
10
14.750000247335812
20
-13
30
0
11
15
21
-13
31
0
0
LINE
5
241
100
AcDbEntity
8
0
100
AcDbLine
10
15
20
-13
30
0
11
15
21
-12.749999999999998
31
0
0
LINE
5
242
100
AcDbEntity
8
0
100
AcDbLine
10
15
20
-12.749999999999998
30
0
11
14.750000000000004
21
-12.749999999999998
31
0
0
LINE
5
243
100
AcDbEntity
8
0
100
AcDbLine
10
14.750000000000004
20
-12.749999999999998
30
0
11
14.750000000000004
21
-12.499999999999998
31
0
0
LINE
5
244
100
AcDbEntity
8
0
100
AcDbLine
10
14.750000247335812
20
-12.499999999999998
30
0
11
15
21
-12.499999999999998
31
0
0
LINE
5
245
100
AcDbEntity
8
0
100
AcDbLine
10
15
20
-12.499999999999998
30
0
11
15
21
-12.25
31
0
0
LINE
5
246
100
AcDbEntity
8
0
100
AcDbLine
10
15
20
-12.25
30
0
11
14.750000000000004
21
-12.25
31
0
0
LINE
5
247
100
AcDbEntity
8
0
100
AcDbLine
10
14.750000000000004
20
-12.25
30
0
11
14.750000000000004
21
-12
31
0
0
LINE
5
248
100
AcDbEntity
8
0
100
AcDbLine
10
14.750000247335812
20
-12
30
0
11
15
21
-12
31
0
0
LINE
5
249
100
AcDbEntity
8
0
100
AcDbLine
10
15
20
-12
30
0
11
15
21
-11.75
31
0
0
LINE
5
250
100
AcDbEntity
8
0
100
AcDbLine
10
15
20
-11.75
30
0
11
14.750000000000004
21
-11.75
31
0
0
LINE
5
251
100
AcDbEntity
8
0
100
AcDbLine
10
14.750000000000004
20
-11.75
30
0
11
14.750000000000004
21
-11.5
31
0
0
LINE
5
252
100
AcDbEntity
8
0
100
AcDbLine
10
14.750000247335812
20
-11.5
30
0
11
15
21
-11.5
31
0
0
LINE
5
253
100
AcDbEntity
8
0
100
AcDbLine
10
15
20
-11.5
30
0
11
15
21
-11.25
31
0
0
LINE
5
254
100
AcDbEntity
8
0
100
AcDbLine
10
15
20
-11.25
30
0
11
14.750000000000004
21
-11.25
31
0
0
LINE
5
255
100
AcDbEntity
8
0
100
AcDbLine
10
14.750000000000004
20
-11.25
30
0
11
14.750000000000004
21
-11
31
0
0
LINE
5
256
100
AcDbEntity
8
0
100
AcDbLine
10
14.750000247335812
20
-11
30
0
11
15
21
-11
31
0
0
LINE
5
257
100
AcDbEntity
8
0
100
AcDbLine
10
15
20
-11
30
0
11
15
21
-10.75
31
0
0
LINE
5
258
100
AcDbEntity
8
0
100
AcDbLine
10
15
20
-10.75
30
0
11
14.750000000000004
21
-10.75
31
0
0
LINE
5
259
100
AcDbEntity
8
0
100
AcDbLine
10
14.750000000000004
20
-10.75
30
0
11
14.750000000000004
21
-10.5
31
0
0
LINE
5
260
100
AcDbEntity
8
0
100
AcDbLine
10
14.750000247335812
20
-10.499999999999998
30
0
11
15
21
-10.499999999999998
31
0
0
LINE
5
261
100
AcDbEntity
8
0
100
AcDbLine
10
15
20
-10.499999999999998
30
0
11
15
21
-10.25
31
0
0
LINE
5
262
100
AcDbEntity
8
0
100
AcDbLine
10
15
20
-10.25
30
0
11
14.750000000000004
21
-10.25
31
0
0
LINE
5
263
100
AcDbEntity
8
0
100
AcDbLine
10
14.750000000000004
20
-10.25
30
0
11
14.750000000000004
21
-9.9999999999999982
31
0
0
LINE
5
264
100
AcDbEntity
8
0
100
AcDbLine
10
14.750000247335812
20
-9.9999999999999982
30
0
11
15
21
-9.9999999999999982
31
0
0
LINE
5
265
100
AcDbEntity
8
0
100
AcDbLine
10
15
20
-9.9999999999999982
30
0
11
15
21
-9.75
31
0
0
LINE
5
266
100
AcDbEntity
8
0
100
AcDbLine
10
15
20
-9.75
30
0
11
14.750000000000004
21
-9.75
31
0
0
LINE
5
267
100
AcDbEntity
8
0
100
AcDbLine
10
14.750000000000004
20
-9.75
30
0
11
14.750000000000004
21
-9.4999999999999982
31
0
0
LINE
5
268
100
AcDbEntity
8
0
100
AcDbLine
10
14.750000247335812
20
-9.4999999999999982
30
0
11
15
21
-9.4999999999999982
31
0
0
LINE
5
269
100
AcDbEntity
8
0
100
AcDbLine
10
15
20
-9.4999999999999982
30
0
11
15
21
-9.25
31
0
0
LINE
5
270
100
AcDbEntity
8
0
100
AcDbLine
10
15
20
-9.25
30
0
11
14.750000000000004
21
-9.25
31
0
0
LINE
5
271
100
AcDbEntity
8
0
100
AcDbLine
10
14.750000000000004
20
-9.25
30
0
11
14.750000000000004
21
-8.9999999999999982
31
0
0
LINE
5
272
100
AcDbEntity
8
0
100
AcDbLine
10
14.750000247335812
20
-8.9999999999999982
30
0
11
15
21
-8.9999999999999982
31
0
0
LINE
5
273
100
AcDbEntity
8
0
100
AcDbLine
10
15
20
-8.9999999999999982
30
0
11
15
21
-8.75
31
0
0
LINE
5
274
100
AcDbEntity
8
0
100
AcDbLine
10
15
20
-8.75
30
0
11
14.750000000000004
21
-8.75
31
0
0
LINE
5
275
100
AcDbEntity
8
0
100
AcDbLine
10
14.750000000000004
20
-8.75
30
0
11
14.750000000000004
21
-8.5
31
0
0
LINE
5
276
100
AcDbEntity
8
0
100
AcDbLine
10
14.750000247335812
20
-8.5
30
0
11
15
21
-8.5
31
0
0
LINE
5
277
100
AcDbEntity
8
0
100
AcDbLine
10
15
20
-8.5
30
0
11
15
21
-8.25
31
0
0
LINE
5
278
100
AcDbEntity
8
0
100
AcDbLine
10
15
20
-8.25
30
0
11
14.750000000000004
21
-8.25
31
0
0
LINE
5
279
100
AcDbEntity
8
0
100
AcDbLine
10
14.750000000000004
20
-8.25
30
0
11
14.750000000000004
21
-7.9999999999999991
31
0
0
LINE
5
280
100
AcDbEntity
8
0
100
AcDbLine
10
14.750000247335812
20
-7.9999999999999991
30
0
11
15
21
-7.9999999999999991
31
0
0
LINE
5
281
100
AcDbEntity
8
0
100
AcDbLine
10
15
20
-7.9999999999999991
30
0
11
15
21
-7.75
31
0
0
LINE
5
282
100
AcDbEntity
8
0
100
AcDbLine
10
15
20
-7.75
30
0
11
14.750000000000004
21
-7.75
31
0
0
LINE
5
283
100
AcDbEntity
8
0
100
AcDbLine
10
14.750000000000004
20
-7.75
30
0
11
14.750000000000004
21
-7.5
31
0
0
LINE
5
284
100
AcDbEntity
8
0
100
AcDbLine
10
14.750000247335812
20
-7.5
30
0
11
15
21
-7.5
31
0
0
LINE
5
285
100
AcDbEntity
8
0
100
AcDbLine
10
15
20
-7.5
30
0
11
15
21
-7.2500000000000009
31
0
0
LINE
5
286
100
AcDbEntity
8
0
100
AcDbLine
10
15
20
-7.2500000000000009
30
0
11
14.750000000000004
21
-7.2500000000000009
31
0
0
LINE
5
287
100
AcDbEntity
8
0
100
AcDbLine
10
14.750000000000004
20
-7.2500000000000009
30
0
11
14.750000000000004
21
-7
31
0
0
LINE
5
288
100
AcDbEntity
8
0
100
AcDbLine
10
14.750000247335812
20
-7
30
0
11
15
21
-7
31
0
0
LINE
5
289
100
AcDbEntity
8
0
100
AcDbLine
10
15
20
-7
30
0
11
15
21
-6.7500000000000009
31
0
0
LINE
5
290
100
AcDbEntity
8
0
100
AcDbLine
10
15
20
-6.7500000000000009
30
0
11
14.750000000000004
21
-6.7500000000000009
31
0
0
LINE
5
291
100
AcDbEntity
8
0
100
AcDbLine
10
14.750000000000004
20
-6.7500000000000009
30
0
11
14.750000000000004
21
-6.5
31
0
0
LINE
5
292
100
AcDbEntity
8
0
100
AcDbLine
10
14.750000247335812
20
-6.5
30
0
11
15
21
-6.5
31
0
0
LINE
5
293
100
AcDbEntity
8
0
100
AcDbLine
10
15
20
-6.5
30
0
11
15
21
-6.2499999999999991
31
0
0
LINE
5
294
100
AcDbEntity
8
0
100
AcDbLine
10
15
20
-6.2499999999999991
30
0
11
14.750000000000004
21
-6.2499999999999991
31
0
0
LINE
5
295
100
AcDbEntity
8
0
100
AcDbLine
10
14.750000000000004
20
-6.2499999999999991
30
0
11
14.750000000000004
21
-6
31
0
0
LINE
5
296
100
AcDbEntity
8
0
100
AcDbLine
10
14.750000247335812
20
-6
30
0
11
15
21
-6
31
0
0
LINE
5
297
100
AcDbEntity
8
0
100
AcDbLine
10
15
20
-6
30
0
11
15
21
-5.75
31
0
0
LINE
5
298
100
AcDbEntity
8
0
100
AcDbLine
10
15
20
-5.75
30
0
11
14.750000000000004
21
-5.75
31
0
0
LINE
5
299
100
AcDbEntity
8
0
100
AcDbLine
10
14.750000000000004
20
-5.75
30
0
11
14.750000000000004
21
-5.5
31
0
0
LINE
5
300
100
AcDbEntity
8
0
100
AcDbLine
10
14.750000247335812
20
-5.4999999999999991
30
0
11
15
21
-5.4999999999999991
31
0
0
LINE
5
301
100
AcDbEntity
8
0
100
AcDbLine
10
15
20
-5.4999999999999991
30
0
11
15
21
-5.2499999999999991
31
0
0
LINE
5
302
100
AcDbEntity
8
0
100
AcDbLine
10
15
20
-5.2499999999999991
30
0
11
14.750000000000004
21
-5.2499999999999991
31
0
0
LINE
5
303
100
AcDbEntity
8
0
100
AcDbLine
10
14.750000000000004
20
-5.2499999999999991
30
0
11
14.750000000000004
21
-4.9999999999999991
31
0
0
LINE
5
304
100
AcDbEntity
8
0
100
AcDbLine
10
14.750000247335812
20
-4.9999999999999991
30
0
11
15
21
-4.9999999999999991
31
0
0
LINE
5
305
100
AcDbEntity
8
0
100
AcDbLine
10
15
20
-4.9999999999999991
30
0
11
15
21
-4.7499999999999991
31
0
0
LINE
5
306
100
AcDbEntity
8
0
100
AcDbLine
10
15
20
-4.7499999999999991
30
0
11
14.750000000000004
21
-4.7499999999999991
31
0
0
LINE
5
307
100
AcDbEntity
8
0
100
AcDbLine
10
14.750000000000004
20
-4.7499999999999991
30
0
11
14.750000000000004
21
-4.4999999999999991
31
0
0
LINE
5
308
100
AcDbEntity
8
0
100
AcDbLine
10
14.750000247335812
20
-4.4999999999999991
30
0
11
15
21
-4.4999999999999991
31
0
0
LINE
5
309
100
AcDbEntity
8
0
100
AcDbLine
10
15
20
-4.4999999999999991
30
0
11
15
21
-4.25
31
0
0
LINE
5
310
100
AcDbEntity
8
0
100
AcDbLine
10
15
20
-4.25
30
0
11
14.750000000000004
21
-4.25
31
0
0
LINE
5
311
100
AcDbEntity
8
0
100
AcDbLine
10
14.750000000000004
20
-4.25
30
0
11
14.750000000000004
21
-3.9999999999999996
31
0
0
LINE
5
312
100
AcDbEntity
8
0
100
AcDbLine
10
14.750000247335812
20
-3.9999999999999996
30
0
11
15
21
-3.9999999999999996
31
0
0
LINE
5
313
100
AcDbEntity
8
0
100
AcDbLine
10
15
20
-3.9999999999999996
30
0
11
15
21
-3.75
31
0
0
LINE
5
314
100
AcDbEntity
8
0
100
AcDbLine
10
15
20
-3.75
30
0
11
14.750000000000004
21
-3.75
31
0
0
LINE
5
315
100
AcDbEntity
8
0
100
AcDbLine
10
14.750000000000004
20
-3.75
30
0
11
14.750000000000004
21
-3.5
31
0
0
LINE
5
316
100
AcDbEntity
8
0
100
AcDbLine
10
14.750000247335812
20
-3.5
30
0
11
15
21
-3.5
31
0
0
LINE
5
317
100
AcDbEntity
8
0
100
AcDbLine
10
15
20
-3.5
30
0
11
15
21
-3.25
31
0
0
LINE
5
318
100
AcDbEntity
8
0
100
AcDbLine
10
15
20
-3.25
30
0
11
14.750000000000004
21
-3.25
31
0
0
LINE
5
319
100
AcDbEntity
8
0
100
AcDbLine
10
14.750000000000004
20
-3.25
30
0
11
14.750000000000004
21
-3
31
0
0
LINE
5
320
100
AcDbEntity
8
0
100
AcDbLine
10
14.750000247335812
20
-2.9999999999999996
30
0
11
15
21
-2.9999999999999996
31
0
0
LINE
5
321
100
AcDbEntity
8
0
100
AcDbLine
10
15
20
-2.9999999999999996
30
0
11
15
21
-2.7499999999999996
31
0
0
LINE
5
322
100
AcDbEntity
8
0
100
AcDbLine
10
15
20
-2.7499999999999996
30
0
11
14.750000000000004
21
-2.7499999999999996
31
0
0
LINE
5
323
100
AcDbEntity
8
0
100
AcDbLine
10
14.750000000000004
20
-2.7499999999999996
30
0
11
14.750000000000004
21
-2.4999999999999996
31
0
0
LINE
5
324
100
AcDbEntity
8
0
100
AcDbLine
10
14.750000247335812
20
-2.4999999999999996
30
0
11
15
21
-2.4999999999999996
31
0
0
LINE
5
325
100
AcDbEntity
8
0
100
AcDbLine
10
15
20
-2.4999999999999996
30
0
11
15
21
-2.2499999999999996
31
0
0
LINE
5
326
100
AcDbEntity
8
0
100
AcDbLine
10
15
20
-2.2499999999999996
30
0
11
14.750000000000004
21
-2.2499999999999996
31
0
0
LINE
5
327
100
AcDbEntity
8
0
100
AcDbLine
10
14.750000000000004
20
-2.2499999999999996
30
0
11
14.750000000000004
21
-1.9999999999999998
31
0
0
LINE
5
328
100
AcDbEntity
8
0
100
AcDbLine
10
14.750000247335812
20
-1.9999999999999998
30
0
11
15
21
-1.9999999999999998
31
0
0
LINE
5
329
100
AcDbEntity
8
0
100
AcDbLine
10
15
20
-1.9999999999999998
30
0
11
15
21
-1.75
31
0
0
LINE
5
330
100
AcDbEntity
8
0
100
AcDbLine
10
15
20
-1.75
30
0
11
14.750000000000004
21
-1.75
31
0
0
LINE
5
331
100
AcDbEntity
8
0
100
AcDbLine
10
14.750000000000004
20
-1.75
30
0
11
14.750000000000004
21
-1.5
31
0
0
LINE
5
332
100
AcDbEntity
8
0
100
AcDbLine
10
14.750000247335812
20
-1.5
30
0
11
15
21
-1.5
31
0
0
LINE
5
333
100
AcDbEntity
8
0
100
AcDbLine
10
15
20
-1.5
30
0
11
15
21
-1.2499999999999998
31
0
0
LINE
5
334
100
AcDbEntity
8
0
100
AcDbLine
10
15
20
-1.2499999999999998
30
0
11
14.750000000000004
21
-1.2499999999999998
31
0
0
LINE
5
335
100
AcDbEntity
8
0
100
AcDbLine
10
14.750000000000004
20
-1.2499999999999998
30
0
11
14.750000000000004
21
-0.99999999999999989
31
0
0
LINE
5
336
100
AcDbEntity
8
0
100
AcDbLine
10
14.750000247335812
20
-0.99999999999999989
30
0
11
15
21
-0.99999999999999989
31
0
0
LINE
5
337
100
AcDbEntity
8
0
100
AcDbLine
10
15
20
-0.99999999999999989
30
0
11
15
21
-0.75
31
0
0
LINE
5
338
100
AcDbEntity
8
0
100
AcDbLine
10
15
20
-0.75
30
0
11
14.750000000000004
21
-0.75
31
0
0
LINE
5
339
100
AcDbEntity
8
0
100
AcDbLine
10
14.750000000000004
20
-0.75
30
0
11
14.750000000000004
21
-0.49999999999999994
31
0
0
LINE
5
340
100
AcDbEntity
8
0
100
AcDbLine
10
14.750000247335812
20
-0.49999999999999994
30
0
11
15
21
-0.49999999999999994
31
0
0
LINE
5
341
100
AcDbEntity
8
0
100
AcDbLine
10
15
20
-0.49999999999999994
30
0
11
15
21
-0.24999999999999997
31
0
0
LINE
5
342
100
AcDbEntity
8
0
100
AcDbLine
10
15
20
-0.24999999999999997
30
0
11
14.750000000000004
21
-0.24999999999999997
31
0
0
LINE
5
343
100
AcDbEntity
8
0
100
AcDbLine
10
14.750000000000004
20
-0.24999999999999997
30
0
11
14.750000000000004
21
0
31
0
0
LINE
5
344
100
AcDbEntity
8
0
100
AcDbLine
10
14.750000000000004
20
0
30
0
11
3
21
0
31
0
0
LINE
5
345
100
AcDbEntity
8
0
100
AcDbLine
10
3
20
0
30
0
11
3
21
-0.2499999999999992
31
0
0
LINE
5
346
100
AcDbEntity
8
0
100
AcDbLine
10
3
20
-0.2499999999999992
30
0
11
3.2500000000000009
21
-0.24999999999999972
31
0
0
LINE
5
347
100
AcDbEntity
8
0
100
AcDbLine
10
3.2500000000000009
20
-0.24999999999999972
30
0
11
3.2500000000000009
21
-0.49999999999999961
31
0
0
LINE
5
348
100
AcDbEntity
8
0
100
AcDbLine
10
3.2500000000000009
20
-0.49999999999999961
30
0
11
3
21
-0.49999999999999944
31
0
0
LINE
5
349
100
AcDbEntity
8
0
100
AcDbLine
10
3
20
-0.49999999999999944
30
0
11
3
21
-0.74999999999999911
31
0
0
LINE
5
350
100
AcDbEntity
8
0
100
AcDbLine
10
3
20
-0.74999999999999911
30
0
11
3.2500000000000009
21
-0.749999999999999
31
0
0
LINE
5
351
100
AcDbEntity
8
0
100
AcDbLine
10
3.2500000000000009
20
-0.749999999999999
30
0
11
3.2500000000000009
21
-0.99999999999999867
31
0
0
LINE
5
352
100
AcDbEntity
8
0
100
AcDbLine
10
3.2500000000000009
20
-0.99999999999999867
30
0
11
3
21
-0.99999999999999889
31
0
0
LINE
5
353
100
AcDbEntity
8
0
100
AcDbLine
10
3
20
-0.99999999999999889
30
0
11
3
21
-1.2499999999999989
31
0
0
LINE
5
354
100
AcDbEntity
8
0
100
AcDbLine
10
3
20
-1.2499999999999989
30
0
11
3.2500000000000009
21
-1.2499999999999987
31
0
0
LINE
5
355
100
AcDbEntity
8
0
100
AcDbLine
10
3.2500000000000009
20
-1.2499999999999987
30
0
11
3.2500000000000009
21
-1.4999999999999987
31
0
0
LINE
5
356
100
AcDbEntity
8
0
100
AcDbLine
10
3.2500000000000009
20
-1.4999999999999987
30
0
11
3
21
-1.4999999999999989
31
0
0
LINE
5
357
100
AcDbEntity
8
0
100
AcDbLine
10
3
20
-1.4999999999999989
30
0
11
3
21
-1.7499999999999989
31
0
0
LINE
5
358
100
AcDbEntity
8
0
100
AcDbLine
10
3
20
-1.7499999999999989
30
0
11
3.2500000000000009
21
-1.7499999999999987
31
0
0
LINE
5
359
100
AcDbEntity
8
0
100
AcDbLine
10
3.2500000000000009
20
-1.7499999999999987
30
0
11
3.2500000000000009
21
-1.9999999999999989
31
0
0
LINE
5
360
100
AcDbEntity
8
0
100
AcDbLine
10
3.2500000000000009
20
-1.9999999999999989
30
0
11
3
21
-1.9999999999999989
31
0
0
LINE
5
361
100
AcDbEntity
8
0
100
AcDbLine
10
3
20
-1.9999999999999989
30
0
11
3
21
-2.2499999999999987
31
0
0
LINE
5
362
100
AcDbEntity
8
0
100
AcDbLine
10
3
20
-2.2499999999999987
30
0
11
3.2500000000000009
21
-2.2499999999999982
31
0
0
LINE
5
363
100
AcDbEntity
8
0
100
AcDbLine
10
3.2500000000000009
20
-2.2499999999999982
30
0
11
3.2500000000000009
21
-2.4999999999999987
31
0
0
LINE
5
364
100
AcDbEntity
8
0
100
AcDbLine
10
3.2500000000000009
20
-2.4999999999999987
30
0
11
3
21
-2.4999999999999987
31
0
0
LINE
5
365
100
AcDbEntity
8
0
100
AcDbLine
10
3
20
-2.4999999999999987
30
0
11
3
21
-2.7499999999999987
31
0
0
LINE
5
366
100
AcDbEntity
8
0
100
AcDbLine
10
3
20
-2.7499999999999987
30
0
11
3.2500000000000009
21
-2.7499999999999982
31
0
0
LINE
5
367
100
AcDbEntity
8
0
100
AcDbLine
10
3.2500000000000009
20
-2.7499999999999982
30
0
11
3.2500000000000009
21
-2.9999999999999982
31
0
0
LINE
5
368
100
AcDbEntity
8
0
100
AcDbLine
10
3.2500000000000009
20
-2.9999999999999982
30
0
11
3
21
-2.9999999999999982
31
0
0
LINE
5
369
100
AcDbEntity
8
0
100
AcDbLine
10
3
20
-2.9999999999999982
30
0
11
3
21
-3.2499999999999996
31
0
0
LINE
5
370
100
AcDbEntity
8
0
100
AcDbLine
10
3
20
-3.2499999999999996
30
0
11
3.2500000000000009
21
-3.2499999999999996
31
0
0
LINE
5
371
100
AcDbEntity
8
0
100
AcDbLine
10
3.2500000000000009
20
-3.2499999999999996
30
0
11
3.2500000000000009
21
-3.4999999999999991
31
0
0
LINE
5
372
100
AcDbEntity
8
0
100
AcDbLine
10
3.2500000000000009
20
-3.4999999999999991
30
0
11
3
21
-3.4999999999999991
31
0
0
LINE
5
373
100
AcDbEntity
8
0
100
AcDbLine
10
3
20
-3.4999999999999991
30
0
11
3
21
-3.7499999999999991
31
0
0
LINE
5
374
100
AcDbEntity
8
0
100
AcDbLine
10
3
20
-3.7499999999999991
30
0
11
3.2500000000000009
21
-3.7499999999999991
31
0
0
LINE
5
375
100
AcDbEntity
8
0
100
AcDbLine
10
3.2500000000000009
20
-3.7499999999999991
30
0
11
3.2500000000000009
21
-3.9999999999999991
31
0
0
LINE
5
376
100
AcDbEntity
8
0
100
AcDbLine
10
3.2500000000000009
20
-3.9999999999999991
30
0
11
3
21
-3.9999999999999991
31
0
0
LINE
5
377
100
AcDbEntity
8
0
100
AcDbLine
10
3
20
-3.9999999999999991
30
0
11
3
21
-4.2499999999999991
31
0
0
LINE
5
378
100
AcDbEntity
8
0
100
AcDbLine
10
3
20
-4.2499999999999991
30
0
11
3.2500000000000009
21
-4.2499999999999991
31
0
0
LINE
5
379
100
AcDbEntity
8
0
100
AcDbLine
10
3.2500000000000009
20
-4.2499999999999991
30
0
11
3.2500000000000009
21
-4.4999999999999991
31
0
0
LINE
5
380
100
AcDbEntity
8
0
100
AcDbLine
10
3.2500000000000009
20
-4.4999999999999991
30
0
11
3
21
-4.4999999999999991
31
0
0
LINE
5
381
100
AcDbEntity
8
0
100
AcDbLine
10
3
20
-4.4999999999999991
30
0
11
3
21
-4.7499999999999991
31
0
0
LINE
5
382
100
AcDbEntity
8
0
100
AcDbLine
10
3
20
-4.7499999999999991
30
0
11
3.2500000000000009
21
-4.7499999999999991
31
0
0
LINE
5
383
100
AcDbEntity
8
0
100
AcDbLine
10
3.2500000000000009
20
-4.7499999999999991
30
0
11
3.2500000000000009
21
-4.9999999999999982
31
0
0
LINE
5
384
100
AcDbEntity
8
0
100
AcDbLine
10
3.2500000000000009
20
-4.9999999999999982
30
0
11
3
21
-4.9999999999999982
31
0
0
LINE
5
385
100
AcDbEntity
8
0
100
AcDbLine
10
3
20
-4.9999999999999982
30
0
11
3
21
-5.2499999999999982
31
0
0
LINE
5
386
100
AcDbEntity
8
0
100
AcDbLine
10
3
20
-5.2499999999999982
30
0
11
3.2500000000000009
21
-5.2499999999999982
31
0
0
LINE
5
387
100
AcDbEntity
8
0
100
AcDbLine
10
3.2500000000000009
20
-5.2499999999999982
30
0
11
3.2500000000000009
21
-5.4999999999999982
31
0
0
LINE
5
388
100
AcDbEntity
8
0
100
AcDbLine
10
3.2500000000000009
20
-5.4999999999999982
30
0
11
3
21
-5.4999999999999982
31
0
0
ENDSEC
0
SECTION
2
OBJECTS
0
DICTIONARY
5
C
100
AcDbDictionary
3
ACAD_GROUP
350
D
3
ACAD_MLINESTYLE
350
17
0
DICTIONARY
5
D
100
AcDbDictionary
0
DICTIONARY
5
1A
330
C
100
AcDbDictionary
0
DICTIONARY
5
17
100
AcDbDictionary
0
ENDSEC
0
EOF
